<?xml version="1.0" standalone="no"?>
<!DOCTYPE svg PUBLIC "-//W3C//DTD SVG 1.1//EN" "http://www.w3.org/Graphics/SVG/1.1/DTD/svg11.dtd" >
<svg xmlns="http://www.w3.org/2000/svg" xmlns:xlink="http://www.w3.org/1999/xlink" version="1.1">
<metadata>
Created by FontForge 20170731 at Mon Feb  7 21:27:18 2022
 By Aleksey,,,
Copyright (c) 2014 by Ryoichi Tsunekawa. All rights reserved.
</metadata>
<defs>
<font id="Graphie-Light" horiz-adv-x="839" >
  <font-face 
    font-family="Graphie Light"
    font-weight="300"
    font-stretch="normal"
    units-per-em="2048"
    panose-1="2 11 4 3 2 2 4 2 2 4"
    ascent="1536"
    descent="-512"
    x-height="954"
    cap-height="1360"
    bbox="-338 -430 2181 1874"
    underline-thickness="71"
    underline-position="-279"
    unicode-range="U+0020-FB03"
  />
<missing-glyph horiz-adv-x="1269" 
d="M1159 0h-1048v1360h1048v-1360zM1010 1276h-750l375 -520zM580 680l-377 524v-1048zM690 680l377 -524v1048zM1010 84l-375 520l-375 -520h750z" />
    <glyph glyph-name="ff" unicode="ff" horiz-adv-x="1249" 
d="M1077 1454q117 0 180 -37v-102h-6q-62 45 -161 45q-96 0 -146.5 -56.5t-50.5 -164.5v-185h334v-92h-334v-862h-105v862h-473v-862h-104v862h-188v92h188v168q0 148 75.5 230t213.5 82q117 0 180 -37v-103h-6q-62 45 -162 45q-96 0 -146.5 -56.5t-50.5 -164.5v-164h473
v189q0 148 75.5 229.5t213.5 81.5z" />
    <glyph glyph-name="fi" unicode="fi" horiz-adv-x="1044" 
d="M901 0h-104v862h-482v-862h-104v862h-188v92h188v189q0 147 73.5 229t204.5 82q107 0 170 -37v-102h-6q-27 20 -70 32.5t-81 12.5q-89 0 -138 -56.5t-49 -164.5v-185h586v-954zM848 1335q32 0 54 -23t22 -55q0 -31 -22 -53t-54 -22t-54 22t-22 53q0 32 22 55t54 23z" />
    <glyph glyph-name="ffi" unicode="ffi" horiz-adv-x="1622" 
d="M1479 0h-105v862h-481v-862h-105v862h-473v-862h-104v862h-188v92h188v168q0 148 75.5 230t213.5 82q117 0 180 -37v-103h-6q-62 45 -162 45q-96 0 -146.5 -56.5t-50.5 -164.5v-164h473v189q0 147 74 229t205 82q107 0 170 -37v-102h-6q-27 20 -70.5 32.5t-81.5 12.5
q-89 0 -137.5 -56.5t-48.5 -164.5v-185h586v-954zM1425 1335q32 0 54 -23t22 -55q0 -31 -22 -53t-54 -22t-53.5 22t-21.5 53q0 33 21.5 55.5t53.5 22.5z" />
    <glyph glyph-name="f_j" unicode="fj" horiz-adv-x="1044" 
d="M901 954v-1124q0 -124 -49.5 -182t-151.5 -58q-59 0 -108 21v98h6q36 -24 90 -24q60 0 84.5 33.5t24.5 117.5v1026h-482v-862h-104v862h-188v92h188v189q0 147 73.5 229t204.5 82q107 0 170 -37v-102h-6q-27 20 -70 32.5t-81 12.5q-89 0 -138 -56.5t-49 -164.5v-185h586z
M848 1335q32 0 54 -23t22 -55q0 -31 -22 -53t-54 -22t-54 22t-22 53q0 32 22 55t54 23z" />
    <glyph glyph-name="f_f_j" unicode="ffj" horiz-adv-x="1622" 
d="M1479 954v-1124q0 -124 -49.5 -182t-151.5 -58q-60 0 -109 21v98h7q36 -24 90 -24q60 0 84 33t24 118v1026h-481v-862h-105v862h-473v-862h-104v862h-188v92h188v168q0 148 75.5 230t213.5 82q117 0 180 -37v-103h-6q-62 45 -162 45q-96 0 -146.5 -56.5t-50.5 -164.5
v-164h473v189q0 147 74 229t205 82q107 0 170 -37v-102h-6q-27 20 -70.5 32.5t-81.5 12.5q-89 0 -137.5 -56.5t-48.5 -164.5v-185h586zM1425 1335q32 0 54 -23t22 -55q0 -31 -22 -53t-54 -22t-53.5 22t-21.5 53q0 33 21.5 55.5t53.5 22.5z" />
    <glyph glyph-name=".notdef" horiz-adv-x="1269" 
d="M1159 0h-1048v1360h1048v-1360zM1010 1276h-750l375 -520zM580 680l-377 524v-1048zM690 680l377 -524v1048zM1010 84l-375 520l-375 -520h750z" />
    <glyph glyph-name=".null" horiz-adv-x="0" 
 />
    <glyph glyph-name="nonmarkingreturn" horiz-adv-x="682" 
 />
    <glyph glyph-name="space" unicode=" " horiz-adv-x="450" 
 />
    <glyph glyph-name="exclam" unicode="!" horiz-adv-x="479" 
d="M193 340l-15 1020h123l-14 -1020h-94zM240 141q34 0 56.5 -23.5t22.5 -58.5q0 -34 -22.5 -56.5t-56.5 -22.5t-57 22.5t-23 56.5q0 35 23 58.5t57 23.5z" />
    <glyph glyph-name="quotedbl" unicode="&#x22;" horiz-adv-x="753" 
d="M178 770l-10 590h98l-10 -590h-78zM498 770l-11 590h99l-11 -590h-77z" />
    <glyph glyph-name="numbersign" unicode="#" horiz-adv-x="1331" 
d="M907 485h293l-10 -77h-295l-57 -408h-84l57 408h-371l-57 -408h-86l57 408h-293l11 77h295l57 410h-293l10 78h293l55 387h86l-55 -387h371l55 387h84l-55 -387h295l-13 -78h-292zM510 895l-57 -410h370l58 410h-371z" />
    <glyph glyph-name="dollar" unicode="$" horiz-adv-x="1331" 
d="M1141 408q0 -157 -114 -249.5t-318 -101.5v-180h-95v178q-290 12 -440 144v114h6q150 -147 434 -159v489q-227 15 -324 87.5t-97 219.5q0 154 114 250t307 105v157h95v-159q255 -9 370 -115v-117h-6q-107 123 -364 135v-467q229 -15 329.5 -93.5t102.5 -237.5zM299 954
q0 -97 72 -145t243 -61v460q-146 -7 -230.5 -76t-84.5 -178zM709 633v-481q152 7 238.5 75t86.5 179q0 105 -75 158.5t-250 68.5z" />
    <glyph glyph-name="percent" unicode="%" horiz-adv-x="1540" 
d="M379 1380q142 0 223.5 -90.5t81.5 -247.5q0 -156 -81.5 -245.5t-223.5 -89.5t-223.5 89.5t-81.5 245.5q0 157 81.5 247.5t223.5 90.5zM283 0l868 1360h106l-868 -1360h-106zM379 1294q-100 0 -154.5 -65.5t-54.5 -186.5q0 -120 54.5 -184.5t154.5 -64.5t154.5 64.5
t54.5 184.5q0 121 -54.5 186.5t-154.5 65.5zM1159 653q142 0 223.5 -90.5t81.5 -247.5q0 -156 -81.5 -245.5t-223.5 -89.5t-223.5 89.5t-81.5 245.5q0 157 81.5 247.5t223.5 90.5zM1159 567q-100 0 -154.5 -65.5t-54.5 -186.5q0 -120 54.5 -184.5t154.5 -64.5t154.5 64.5
t54.5 184.5q0 121 -54.5 186.5t-154.5 65.5z" />
    <glyph glyph-name="ampersand" unicode="&#x26;" horiz-adv-x="1294" 
d="M1106 0l-137 139q-167 -159 -434 -159q-203 0 -319 96t-116 264q0 128 69 221t218 166l-25 25q-86 88 -122.5 160t-36.5 157q0 143 97 227t261 84q162 0 258 -78.5t96 -211.5q0 -124 -81.5 -212t-284.5 -176l416 -419q98 143 98 368q0 26 -4 84h102q4 -54 4 -82
q0 -269 -131 -440l211 -213h-139zM451 801l28 -29q193 78 266.5 147t73.5 162q0 92 -69 148.5t-183 56.5q-118 0 -189 -59.5t-71 -157.5q0 -72 31 -130.5t113 -137.5zM541 74q221 0 360 133l-446 450q-132 -66 -191 -138t-59 -169q0 -132 87.5 -204t248.5 -72z" />
    <glyph glyph-name="quotesingle" unicode="'" horiz-adv-x="436" 
d="M178 770l-10 590h98l-10 -590h-78z" />
    <glyph glyph-name="parenleft" unicode="(" horiz-adv-x="714" 
d="M485 1360h115q-305 -338 -305 -785q0 -446 305 -784h-115q-299 338 -299 784q0 447 299 785z" />
    <glyph glyph-name="parenright" unicode=")" horiz-adv-x="714" 
d="M229 -209h-114q305 338 305 784q0 447 -305 785h114q299 -338 299 -785q0 -446 -299 -784z" />
    <glyph glyph-name="asterisk" unicode="*" horiz-adv-x="919" 
d="M651 688l-190 303l-193 -303l-80 60l228 278l-346 90l30 90l332 -127l-20 355h98l-21 -355l330 127l31 -90l-344 -90l227 -278z" />
    <glyph glyph-name="plus" unicode="+" horiz-adv-x="1331" 
d="M713 567v-528h-95v528h-528v95h528v528h95v-528h528v-95h-528z" />
    <glyph glyph-name="comma" unicode="," horiz-adv-x="479" 
d="M68 -289l137 410h108l-159 -410h-86z" />
    <glyph glyph-name="hyphen" unicode="-" horiz-adv-x="757" 
d="M98 504v104h561v-104h-561z" />
    <glyph glyph-name="period" unicode="." horiz-adv-x="479" 
d="M240 141q34 0 56.5 -23.5t22.5 -58.5q0 -34 -22.5 -56.5t-56.5 -22.5t-57 22.5t-23 56.5q0 35 23 58.5t57 23.5z" />
    <glyph glyph-name="slash" unicode="/" horiz-adv-x="823" 
d="M74 -164l577 1585h99l-580 -1585h-96z" />
    <glyph glyph-name="zero" unicode="0" horiz-adv-x="1331" 
d="M666 1380q264 0 409.5 -183.5t145.5 -516.5t-145.5 -516.5t-409.5 -183.5t-409.5 183.5t-145.5 516.5t145.5 516.5t409.5 183.5zM666 1284q-213 0 -330 -158t-117 -446t117 -446t330 -158t329.5 158t116.5 446t-116.5 446t-329.5 158z" />
    <glyph glyph-name="one" unicode="1" horiz-adv-x="1331" 
d="M807 0v1235l-502 -262v112l526 275h82v-1360h-106z" />
    <glyph glyph-name="two" unicode="2" horiz-adv-x="1331" 
d="M1139 96v-96h-940v106l252 197q229 178 351.5 295t175 206t52.5 179q0 147 -96.5 224t-280.5 77q-119 0 -233 -46t-197 -128h-6v121q86 69 202.5 109t233.5 40q235 0 360.5 -101t125.5 -290q0 -111 -56.5 -214t-187 -228.5t-371.5 -308.5l-182 -138v-4h797z" />
    <glyph glyph-name="three" unicode="3" horiz-adv-x="1331" 
d="M924 702v-4q128 -35 196 -121t68 -215q0 -181 -140 -281.5t-386 -100.5q-150 0 -277 42t-197 115v123h7q69 -87 192 -135.5t272 -48.5q198 0 309 78t111 219q0 276 -393 276h-225v94h194q192 0 292 67t100 196q0 133 -104.5 205.5t-291.5 72.5q-123 0 -237.5 -46
t-190.5 -128h-6v123q78 69 195.5 108t244.5 39q232 0 365 -96t133 -266q0 -117 -59 -197.5t-172 -118.5z" />
    <glyph glyph-name="four" unicode="4" horiz-adv-x="1331" 
d="M1061 0h-109v293h-848v90l844 977h113v-971h209v-96h-209v-293zM233 389h719v832z" />
    <glyph glyph-name="five" unicode="5" horiz-adv-x="1331" 
d="M668 868q243 0 379.5 -115.5t136.5 -320.5q0 -213 -142 -332.5t-393 -119.5q-154 0 -281.5 40.5t-199.5 112.5v119h6q72 -83 195.5 -129.5t275.5 -46.5q206 0 318 93t112 263q0 165 -112.5 252.5t-325.5 87.5q-235 0 -416 -104h-6v692h879v-96h-779v-459q149 63 353 63z
" />
    <glyph glyph-name="six" unicode="6" horiz-adv-x="1331" 
d="M739 870q216 0 345.5 -119t129.5 -315q0 -206 -136.5 -331t-362.5 -125q-277 0 -429.5 174t-152.5 489q0 349 162.5 543t452.5 194q245 0 360 -100v-119h-6q-118 121 -346 121q-247 0 -380.5 -163t-133.5 -464h4q83 101 211.5 158t281.5 57zM713 76q178 0 285.5 98
t107.5 260q0 155 -103 247.5t-274 92.5q-153 0 -281.5 -69.5t-197.5 -190.5q20 -205 143 -321.5t320 -116.5z" />
    <glyph glyph-name="seven" unicode="7" horiz-adv-x="1331" 
d="M1245 1253l-842 -1253h-124l854 1264h-977v96h1089v-107z" />
    <glyph glyph-name="eight" unicode="8" horiz-adv-x="1331" 
d="M938 705v-5q283 -75 283 -342q0 -178 -147 -278t-408 -100t-408 100t-147 278q0 260 282 334v4q-241 74 -241 322q0 170 136 266t378 96t378 -96t136 -266q0 -239 -242 -313zM260 1010q0 -267 406 -267q405 0 405 267q0 131 -106 202.5t-299 71.5t-299.5 -71.5
t-106.5 -202.5zM666 76q213 0 329.5 76.5t116.5 214.5q0 282 -446 282q-447 0 -447 -282q0 -138 117 -214.5t330 -76.5z" />
    <glyph glyph-name="nine" unicode="9" horiz-adv-x="1331" 
d="M616 1380q277 0 429.5 -174t152.5 -489q0 -349 -162 -543t-452 -194q-246 0 -361 100v119h6q120 -123 346 -123q247 0 381 164t134 465h-5q-83 -101 -211.5 -158.5t-281.5 -57.5q-216 0 -345.5 119.5t-129.5 315.5q0 206 136.5 331t362.5 125zM602 586q153 0 281.5 69.5
t197.5 190.5q-20 205 -143 321.5t-320 116.5q-177 0 -285 -98.5t-108 -259.5q0 -155 103.5 -247.5t273.5 -92.5z" />
    <glyph glyph-name="colon" unicode=":" horiz-adv-x="479" 
d="M240 141q34 0 56.5 -23.5t22.5 -58.5q0 -34 -22.5 -56.5t-56.5 -22.5t-57 22.5t-23 56.5q0 35 23 58.5t57 23.5zM240 922q34 0 56.5 -23.5t22.5 -58.5q0 -34 -22.5 -57t-56.5 -23t-57 23t-23 57q0 35 23 58.5t57 23.5z" />
    <glyph glyph-name="semicolon" unicode=";" horiz-adv-x="479" 
d="M68 -289l137 410h108l-159 -410h-86zM240 922q34 0 56.5 -23.5t22.5 -58.5q0 -34 -22.5 -57t-56.5 -23t-57 23t-23 57q0 35 23 58.5t57 23.5z" />
    <glyph glyph-name="less" unicode="&#x3c;" horiz-adv-x="1331" 
d="M1182 211v-100l-1032 467v73l1032 467v-100l-901 -404z" />
    <glyph glyph-name="equal" unicode="=" horiz-adv-x="1331" 
d="M129 827v95h1073v-95h-1073zM129 307v94h1073v-94h-1073z" />
    <glyph glyph-name="greater" unicode="&#x3e;" horiz-adv-x="1331" 
d="M150 1018v100l1032 -467v-73l-1032 -467v100l901 403z" />
    <glyph glyph-name="question" unicode="?" horiz-adv-x="980" 
d="M467 1380q212 0 332.5 -98.5t120.5 -271.5q0 -162 -106 -267t-347 -180v-223h-98v291q235 61 338.5 149t103.5 224q0 132 -91 206t-255 74q-120 0 -229 -45.5t-185 -128.5h-6v121q79 70 190.5 109.5t231.5 39.5zM418 141q34 0 57 -23.5t23 -58.5q0 -34 -23 -56.5
t-57 -22.5t-57 22.5t-23 56.5q0 35 23 58.5t57 23.5z" />
    <glyph glyph-name="at" unicode="@" horiz-adv-x="1617" 
d="M1176 924v-518q0 -66 18 -92.5t61 -26.5q91 0 145 89t54 253q0 267 -169.5 433.5t-448.5 166.5q-135 0 -252.5 -50.5t-201 -139t-131.5 -213t-48 -267.5q0 -182 86 -326.5t239.5 -225.5t345.5 -81q141 0 262 40.5t197 111.5h6v-88q-84 -63 -205.5 -98t-263.5 -35
q-216 0 -387.5 89.5t-268.5 250.5t-97 364q0 211 93 379.5t259 263t373 94.5q309 0 498.5 -187t189.5 -486q0 -192 -78 -303t-203 -111q-68 0 -106 38.5t-41 110.5h-4q-42 -71 -117.5 -110t-177.5 -39q-154 0 -254 102.5t-100 259.5q0 158 100 261.5t254 103.5
q101 0 176.5 -40t116.5 -110h4l2 136h74zM815 287q125 0 204 79.5t79 206.5q0 129 -79 209t-204 80q-126 0 -205.5 -80t-79.5 -209q0 -127 79.5 -206.5t205.5 -79.5z" />
    <glyph glyph-name="A" unicode="A" horiz-adv-x="1476" 
d="M1309 0l-154 328h-838l-153 -328h-121l641 1360h107l643 -1360h-125zM739 1225h-4l-370 -795h743z" />
    <glyph glyph-name="B" unicode="B" horiz-adv-x="1292" 
d="M956 700v-4q263 -63 263 -329q0 -180 -116.5 -273.5t-342.5 -93.5h-588v1360h537q227 0 343.5 -89.5t116.5 -264.5q0 -237 -213 -306zM285 741h417q175 0 265 65.5t90 192.5q0 258 -350 258h-422v-516zM285 102h473q171 0 258.5 68.5t87.5 200.5q0 268 -352 268h-467
v-537z" />
    <glyph glyph-name="C" unicode="C" horiz-adv-x="1357" 
d="M795 1380q293 0 458 -151v-131h-6q-77 88 -193.5 134t-254.5 46q-269 0 -436.5 -166.5t-167.5 -431.5t167.5 -431.5t436.5 -166.5q286 0 448 180h6v-131q-175 -151 -458 -151q-157 0 -290.5 52t-226.5 144t-145.5 222t-52.5 282t52.5 282t145.5 222t226.5 144t290.5 52z
" />
    <glyph glyph-name="D" unicode="D" horiz-adv-x="1488" 
d="M172 1360h516q334 0 526.5 -181.5t192.5 -496.5q0 -318 -192 -500t-527 -182h-516v1360zM285 102h399q284 0 446 155t162 425q0 269 -162 422t-446 153h-399v-1155z" />
    <glyph glyph-name="E" unicode="E" horiz-adv-x="1251" 
d="M1001 741v-102h-716v-537h864v-102h-977v1360h977v-103h-864v-516h716z" />
    <glyph glyph-name="F" unicode="F" horiz-adv-x="1210" 
d="M1004 729v-102h-719v-627h-113v1360h979v-103h-866v-528h719z" />
    <glyph glyph-name="G" unicode="G" horiz-adv-x="1447" 
d="M811 1278q-277 0 -446.5 -164t-169.5 -434t169.5 -434t446.5 -164q242 0 393 100v375h-467v102h576v-528q-187 -151 -506 -151q-328 0 -527.5 191.5t-199.5 508.5t199.5 508.5t527.5 191.5q319 0 506 -151v-131h-6q-98 94 -216.5 137t-279.5 43z" />
    <glyph glyph-name="H" unicode="H" horiz-adv-x="1509" 
d="M1337 0h-112v641h-940v-641h-113v1360h113v-617h940v617h112v-1360z" />
    <glyph glyph-name="I" unicode="I" horiz-adv-x="456" 
d="M172 0v1360h113v-1360h-113z" />
    <glyph glyph-name="J" unicode="J" horiz-adv-x="1032" 
d="M895 1360v-924q0 -217 -118 -336.5t-333 -119.5q-241 0 -393 143v129h6q64 -82 163 -126t216 -44q166 0 256 94t90 268v916h113z" />
    <glyph glyph-name="K" unicode="K" horiz-adv-x="1255" 
d="M285 0h-113v1360h113v-643l745 643h162l-791 -672l811 -688h-168l-759 655v-655z" />
    <glyph glyph-name="L" unicode="L" horiz-adv-x="1173" 
d="M1122 0h-950v1360h113v-1258h837v-102z" />
    <glyph glyph-name="M" unicode="M" horiz-adv-x="1900" 
d="M1729 0h-113v1249h-4l-621 -1249h-92l-612 1235h-4v-1235h-111v1360h174l598 -1210h4l600 1210h181v-1360z" />
    <glyph glyph-name="N" unicode="N" horiz-adv-x="1517" 
d="M1346 0h-140l-919 1243h-4v-1243h-111v1360h160l899 -1213h4v1213h111v-1360z" />
    <glyph glyph-name="O" unicode="O" horiz-adv-x="1568" 
d="M784 1380q204 0 364.5 -89t250.5 -249t90 -362t-90 -362t-250.5 -249t-364.5 -89t-364.5 89t-250 248.5t-89.5 362.5t89.5 362.5t250 248.5t364.5 89zM784 1278q-259 0 -424 -167.5t-165 -430.5t165 -430.5t424 -167.5t424.5 167.5t165.5 430.5t-165.5 430.5
t-424.5 167.5z" />
    <glyph glyph-name="P" unicode="P" horiz-adv-x="1280" 
d="M172 1360h576q230 0 347 -104t117 -308q0 -203 -117 -306t-347 -103h-463v-539h-113v1360zM285 641h458q355 0 355 307q0 309 -355 309h-458v-616z" />
    <glyph glyph-name="Q" unicode="Q" horiz-adv-x="1562" 
d="M1489 680q0 -183 -74.5 -331.5t-208.5 -242.5l217 -262h-133l-172 209q-152 -73 -334 -73q-204 0 -364.5 89t-250 248.5t-89.5 362.5t89.5 362.5t250 248.5t364.5 89t364.5 -89t250.5 -249t90 -362zM784 82q142 0 265 55l-267 322h133l224 -271q112 80 173.5 207.5
t61.5 284.5q0 263 -165.5 430.5t-424.5 167.5t-424 -167.5t-165 -430.5t165 -430.5t424 -167.5z" />
    <glyph glyph-name="R" unicode="R" horiz-adv-x="1339" 
d="M285 0h-113v1360h586q230 0 347.5 -102t117.5 -302q0 -343 -346 -393l387 -563h-138l-370 555h-471v-555zM285 657h469q354 0 354 299q0 301 -354 301h-469v-600z" />
    <glyph glyph-name="S" unicode="S" horiz-adv-x="1175" 
d="M588 1380q144 0 261 -33.5t185 -93.5v-133h-6q-66 75 -181.5 116.5t-258.5 41.5q-166 0 -270.5 -79.5t-104.5 -205.5q0 -114 84.5 -169t304.5 -76q274 -26 386 -112.5t112 -268.5q0 -180 -135 -283.5t-367 -103.5q-162 0 -296 39.5t-220 113.5v133h6q181 -184 512 -184
q181 0 284 75.5t103 209.5q0 125 -89 185.5t-320 84.5q-264 28 -371 107.5t-107 246.5q0 175 134 282t354 107z" />
    <glyph glyph-name="T" unicode="T" horiz-adv-x="1177" 
d="M647 0h-112v1257h-484v103h1073v-103h-477v-1257z" />
    <glyph glyph-name="U" unicode="U" horiz-adv-x="1425" 
d="M1288 1360v-791q0 -287 -147.5 -438t-427.5 -151q-281 0 -428.5 151t-147.5 438v791h113v-787q0 -238 119.5 -364.5t345.5 -126.5q224 0 343.5 126.5t119.5 364.5v787h110z" />
    <glyph glyph-name="V" unicode="V" horiz-adv-x="1394" 
d="M752 0h-109l-600 1360h123l530 -1213h4l531 1213h121z" />
    <glyph glyph-name="W" unicode="W" horiz-adv-x="2048" 
d="M1538 0h-113l-399 1163h-4l-399 -1163h-113l-461 1360h121l395 -1182h4l406 1182h100l406 -1186h4l397 1186h117z" />
    <glyph glyph-name="X" unicode="X" horiz-adv-x="1388" 
d="M694 625l-489 -625h-139l550 692l-530 668h141l469 -596l467 596h140l-531 -668l551 -692h-141z" />
    <glyph glyph-name="Y" unicode="Y" horiz-adv-x="1341" 
d="M731 0h-113v610l-595 750h143l508 -651l508 651h137l-588 -744v-616z" />
    <glyph glyph-name="Z" unicode="Z" horiz-adv-x="1294" 
d="M1196 0h-1098v96l938 1161h-897v103h1047v-96l-938 -1162h948v-102z" />
    <glyph glyph-name="bracketleft" unicode="[" horiz-adv-x="714" 
d="M608 -123v-86h-422v1569h422v-86h-319v-1397h319z" />
    <glyph glyph-name="backslash" unicode="\" horiz-adv-x="823" 
d="M750 -164h-99l-577 1585h96z" />
    <glyph glyph-name="bracketright" unicode="]" horiz-adv-x="714" 
d="M106 1274v86h422v-1569h-422v86h320v1397h-320z" />
    <glyph glyph-name="asciicircum" unicode="^" horiz-adv-x="1331" 
d="M666 1253l-435 -675h-106l504 782h73l504 -782h-108z" />
    <glyph glyph-name="underscore" unicode="_" horiz-adv-x="1024" 
d="M0 -236v76h1024v-76h-1024z" />
    <glyph glyph-name="grave" unicode="`" horiz-adv-x="1024" 
d="M483 1112l-254 309h121l238 -309h-105z" />
    <glyph glyph-name="a" unicode="a" horiz-adv-x="1224" 
d="M1079 0h-92l-2 197h-4q-58 -103 -164.5 -160t-247.5 -57q-214 0 -351.5 139.5t-137.5 357.5t137.5 358t351.5 140q141 0 247.5 -57t164.5 -160h4l2 196h92v-954zM582 74q175 0 287 112.5t112 290.5t-112 291t-287 113q-173 0 -284.5 -113t-111.5 -291t111.5 -290.5
t284.5 -112.5z" />
    <glyph glyph-name="b" unicode="b" horiz-adv-x="1222" 
d="M655 975q213 0 350.5 -140t137.5 -358t-137.5 -357.5t-350.5 -139.5q-143 0 -249 57t-164 160h-4l-2 -197h-91v1434h105v-658h4q58 94 161.5 146.5t239.5 52.5zM641 74q174 0 284.5 112.5t110.5 290.5t-110.5 291t-284.5 113t-285.5 -113t-111.5 -291t111.5 -290.5
t285.5 -112.5z" />
    <glyph glyph-name="c" unicode="c" horiz-adv-x="1015" 
d="M592 975q209 0 323 -111v-119h-6q-118 136 -311 136q-185 0 -298.5 -113t-113.5 -291q0 -176 114 -289.5t298 -113.5q194 0 311 135h6v-121q-114 -108 -323 -108q-230 0 -371 139t-141 358q0 220 141 359t371 139z" />
    <glyph glyph-name="d" unicode="d" horiz-adv-x="1224" 
d="M1079 0h-92l-2 197h-4q-58 -103 -164.5 -160t-247.5 -57q-214 0 -351.5 139.5t-137.5 357.5t137.5 358t351.5 140q136 0 240 -54t162 -149h4v662h104v-1434zM582 74q175 0 287 112.5t112 290.5t-112 291t-287 113q-173 0 -284.5 -113t-111.5 -291t111.5 -290.5
t284.5 -112.5z" />
    <glyph glyph-name="e" unicode="e" horiz-adv-x="1140" 
d="M1063 451h-877q9 -174 127.5 -275.5t313.5 -101.5q219 0 366 141h6v-111q-66 -60 -162.5 -92t-209.5 -32q-250 0 -398.5 135t-148.5 362q0 218 140 358t358 140q221 0 353 -125.5t132 -335.5v-63zM580 881q-158 0 -266 -94t-128 -246h781q-9 154 -114.5 247t-272.5 93z
" />
    <glyph glyph-name="f" unicode="f" horiz-adv-x="671" 
d="M500 1454q117 0 180 -37v-102h-6q-62 45 -162 45q-96 0 -146.5 -56.5t-50.5 -164.5v-185h334v-92h-334v-862h-104v862h-188v92h188v189q0 148 75.5 229.5t213.5 81.5z" />
    <glyph glyph-name="g" unicode="g" horiz-adv-x="1224" 
d="M1079 954v-878q0 -230 -132.5 -358t-371.5 -128q-129 0 -234.5 38t-172.5 106v114h6q63 -78 164.5 -120.5t228.5 -42.5q195 0 301.5 102.5t106.5 292.5v106h-4q-58 -95 -162 -148.5t-240 -53.5q-214 0 -351.5 138.5t-137.5 356.5t137.5 357t351.5 139q141 0 247.5 -57
t164.5 -160h4l2 196h92zM582 78q175 0 287 112t112 289q0 178 -112 290t-287 112q-173 0 -284.5 -112t-111.5 -290q0 -176 112 -288.5t284 -112.5z" />
    <glyph glyph-name="h" unicode="h" horiz-adv-x="1142" 
d="M616 975q189 0 298.5 -115t109.5 -313v-547h-104v537q0 162 -85 253t-237 91q-161 0 -254.5 -106.5t-93.5 -289.5v-485h-105v1434h105v-654h4q53 95 145 145t217 50z" />
    <glyph glyph-name="i" unicode="i" horiz-adv-x="393" 
d="M197 1335q32 0 53.5 -22.5t21.5 -55.5q0 -31 -21.5 -53t-53.5 -22t-54 22t-22 53q0 32 22 55t54 23zM145 0v954h105v-954h-105z" />
    <glyph glyph-name="j" unicode="j" horiz-adv-x="393" 
d="M197 1335q32 0 53.5 -22.5t21.5 -55.5q0 -31 -21.5 -53t-53.5 -22t-54 22t-22 53q0 32 22 55t54 23zM250 954v-1124q0 -124 -49.5 -182t-151.5 -58q-59 0 -108 21v98h6q36 -24 90 -24q60 0 84 33t24 118v1118h105z" />
    <glyph glyph-name="k" unicode="k" horiz-adv-x="954" 
d="M250 449v-449h-105v1434h105v-914l502 434h149l-547 -469l568 -485h-154z" />
    <glyph glyph-name="l" unicode="l" horiz-adv-x="395" 
d="M145 0v1434h105v-1434h-105z" />
    <glyph glyph-name="m" unicode="m" horiz-adv-x="1759" 
d="M1272 975q179 0 273.5 -108.5t94.5 -311.5v-555h-104v547q0 163 -72 248.5t-211 85.5q-149 0 -229 -98.5t-80 -284.5v-498h-104v547q0 163 -72.5 248.5t-210.5 85.5q-149 0 -228 -98t-79 -281v-502h-105v954h93l2 -168h4q45 92 130 140.5t204 48.5q124 0 208.5 -58
t122.5 -167h4q87 225 359 225z" />
    <glyph glyph-name="n" unicode="n" horiz-adv-x="1142" 
d="M616 975q189 0 298.5 -115t109.5 -313v-547h-104v537q0 162 -85 253t-237 91q-161 0 -254.5 -106.5t-93.5 -289.5v-485h-105v954h91l2 -196h4q52 104 147 160.5t227 56.5z" />
    <glyph glyph-name="o" unicode="o" horiz-adv-x="1165" 
d="M582 975q221 0 362 -140t141 -358q0 -219 -140.5 -358t-362.5 -139q-220 0 -361 139t-141 358q0 218 141 358t361 140zM582 881q-173 0 -284.5 -113t-111.5 -291t111.5 -290.5t284.5 -112.5q174 0 285.5 112.5t111.5 290.5t-111.5 291t-285.5 113z" />
    <glyph glyph-name="p" unicode="p" horiz-adv-x="1222" 
d="M655 975q213 0 350.5 -140t137.5 -358t-137.5 -357.5t-350.5 -139.5q-136 0 -239.5 52t-161.5 146h-4v-567h-105v1343h91l2 -196h4q58 103 164 160t249 57zM641 74q174 0 284.5 112.5t110.5 290.5t-110.5 291t-284.5 113t-285.5 -113t-111.5 -291t111.5 -290.5
t285.5 -112.5z" />
    <glyph glyph-name="q" unicode="q" horiz-adv-x="1224" 
d="M1079 -389h-104v571h-4q-58 -95 -162 -148.5t-240 -53.5q-214 0 -351.5 139.5t-137.5 357.5t137.5 358t351.5 140q141 0 247.5 -57t164.5 -160h4l2 196h92v-1343zM582 74q175 0 287 112.5t112 290.5t-112 291t-287 113q-173 0 -284.5 -113t-111.5 -291t111.5 -290.5
t284.5 -112.5z" />
    <glyph glyph-name="r" unicode="r" horiz-adv-x="727" 
d="M557 975q83 0 148 -37v-109h-7q-65 45 -149 45q-149 0 -224 -106.5t-75 -312.5v-455h-105v954h91l2 -182h4q87 203 315 203z" />
    <glyph glyph-name="s" unicode="s" horiz-adv-x="876" 
d="M440 975q98 0 182.5 -22t135.5 -60v-115h-6q-100 103 -310 103q-109 0 -180.5 -55t-71.5 -140q0 -74 57.5 -108t203.5 -41q196 -10 277 -73t81 -198q0 -131 -98.5 -208.5t-264.5 -77.5q-241 0 -364 108v121h6q117 -135 356 -135q120 0 192.5 52t72.5 140q0 83 -60.5 120
t-216.5 46q-189 10 -266.5 69t-77.5 183q0 129 97.5 210t254.5 81z" />
    <glyph glyph-name="t" unicode="t" horiz-adv-x="729" 
d="M653 127v-111q-61 -36 -161 -36q-133 0 -207 80t-74 225v577h-188v92h190l20 254h82v-254h334v-92h-334v-575q0 -100 50 -156.5t139 -56.5q93 0 143 53h6z" />
    <glyph glyph-name="u" unicode="u" horiz-adv-x="1142" 
d="M997 0h-92l-2 193h-4q-51 -103 -146.5 -158t-226.5 -55q-189 0 -297 114t-108 314v546h104v-536q0 -161 85.5 -252.5t234.5 -91.5q160 0 254 106t94 287v487h104v-954z" />
    <glyph glyph-name="v" unicode="v" horiz-adv-x="1001" 
d="M553 0h-104l-429 954h113l369 -837h4l366 837h109z" />
    <glyph glyph-name="w" unicode="w" horiz-adv-x="1533" 
d="M1163 0h-100l-293 791h-4l-293 -791h-102l-351 954h111l291 -817h4l301 817h86l301 -817h4l291 817h104z" />
    <glyph glyph-name="x" unicode="x" horiz-adv-x="1030" 
d="M174 0h-127l402 489l-381 465h131l321 -401l316 401h127l-379 -465l399 -489h-131l-338 426z" />
    <glyph glyph-name="y" unicode="y" horiz-adv-x="1001" 
d="M348 -389h-108l204 426l-424 917h113l369 -800h4l366 800h109z" />
    <glyph glyph-name="z" unicode="z" horiz-adv-x="995" 
d="M86 0v86l674 776h-643v92h782v-86l-674 -776h684v-92h-823z" />
    <glyph glyph-name="braceleft" unicode="{" horiz-adv-x="749" 
d="M377 1081v-223q0 -119 -39 -187t-119 -93v-5q80 -25 119 -93t39 -187v-223q0 -193 192 -193h72v-86h-84q-138 0 -210.5 71.5t-72.5 207.5v233q0 119 -46.5 174t-143.5 55h-39v86h39q97 0 143.5 55.5t46.5 174.5v233q0 136 72.5 207.5t210.5 71.5h84v-86h-72
q-192 0 -192 -193z" />
    <glyph glyph-name="bar" unicode="|" horiz-adv-x="686" 
d="M383 1434v-1823h-82v1823h82z" />
    <glyph glyph-name="braceright" unicode="}" horiz-adv-x="749" 
d="M373 70v223q0 119 38.5 187t118.5 93v5q-80 25 -118.5 93t-38.5 187v223q0 193 -193 193h-71v86h84q138 0 210 -71t72 -208v-233q0 -119 47 -174.5t144 -55.5h39v-86h-39q-98 0 -144.5 -55t-46.5 -174v-233q0 -137 -72 -208t-210 -71h-84v86h71q193 0 193 193z" />
    <glyph glyph-name="asciitilde" unicode="~" horiz-adv-x="1331" 
d="M1165 762l76 -47q-145 -250 -330 -250q-63 0 -123.5 23.5t-148.5 86.5q-72 52 -120.5 73.5t-94.5 21.5q-70 0 -131.5 -48.5t-126.5 -154.5l-76 47q145 250 330 250q65 0 125.5 -25t148.5 -88q75 -53 121.5 -72.5t91.5 -19.5q70 0 131.5 48.5t126.5 154.5z" />
    <glyph glyph-name="uni00A0" unicode="&#xa0;" horiz-adv-x="450" 
 />
    <glyph glyph-name="exclamdown" unicode="&#xa1;" horiz-adv-x="479" 
d="M287 1020l14 -1020h-123l15 1020h94zM240 1219q-34 0 -57 23t-23 58q0 34 23 57t57 23t56.5 -23t22.5 -57q0 -35 -22.5 -58t-56.5 -23z" />
    <glyph glyph-name="cent" unicode="&#xa2;" horiz-adv-x="1331" 
d="M1108 827h-6q-112 127 -297 136v-809q184 9 297 137h6v-127q-115 -98 -303 -107v-180h-94v180q-225 14 -357.5 149t-132.5 353q0 216 132.5 351t357.5 149v180h94v-180q185 -9 303 -107v-125zM330 559q0 -175 101 -282.5t280 -122.5v809q-179 -15 -280 -122t-101 -282z
" />
    <glyph glyph-name="sterling" unicode="&#xa3;" horiz-adv-x="1331" 
d="M768 1284q-166 0 -250 -93t-84 -276v-188h547v-96h-547v-160q0 -133 -34.5 -219t-114.5 -152v-4h850v-96h-959v106q84 69 118 145t34 204v176h-152v96h152v197q0 221 110.5 338.5t319.5 117.5q232 0 377 -127v-123h-7q-145 154 -360 154z" />
    <glyph glyph-name="currency" unicode="&#xa4;" horiz-adv-x="1331" 
d="M1065 680q0 -143 -88 -252l158 -156l-62 -61l-155 158q-109 -88 -252 -88t-252 88l-156 -158l-61 61l157 156q-88 109 -88 252t88 252l-157 155l61 62l156 -158q109 88 252 88t252 -88l155 158l62 -62l-158 -155q88 -109 88 -252zM666 365q130 0 220.5 91.5t90.5 223.5
t-90.5 223.5t-220.5 91.5q-131 0 -221.5 -91.5t-90.5 -223.5t90.5 -223.5t221.5 -91.5z" />
    <glyph glyph-name="yen" unicode="&#xa5;" horiz-adv-x="1331" 
d="M1176 729v-94h-455v-221h455v-95h-455v-319h-107v319h-456v95h456v221h-456v94h444l-504 631h133l437 -561l436 561h129l-504 -631h447z" />
    <glyph glyph-name="brokenbar" unicode="&#xa6;" horiz-adv-x="686" 
d="M301 635v799h82v-799h-82zM301 -389v799h82v-799h-82z" />
    <glyph glyph-name="section" unicode="&#xa7;" horiz-adv-x="1103" 
d="M778 354v-4q162 -64 162 -250q0 -145 -106.5 -227t-296.5 -82q-115 0 -217.5 28t-169.5 79v114h6q61 -61 160.5 -94t218.5 -33q147 0 228 57.5t81 157.5q0 95 -70.5 141t-251.5 66q-215 23 -303 92t-88 207q0 97 51.5 171.5t141.5 113.5v4q-160 64 -160 246
q0 143 107 228t288 85q103 0 192 -22t144 -62v-113h-6q-52 49 -138.5 76t-191.5 27q-138 0 -218.5 -59.5t-80.5 -157.5q0 -92 69.5 -137t245.5 -64q218 -23 308 -94t90 -213q0 -96 -52.5 -170t-142.5 -111zM229 616q0 -97 66.5 -144.5t243.5 -70.5q17 -2 43.5 -6t38.5 -6
q114 10 183.5 76.5t69.5 163.5q0 100 -69 148t-248 71q-8 1 -34.5 4.5t-43.5 5.5q-112 -10 -181 -77t-69 -165z" />
    <glyph glyph-name="dieresis" unicode="&#xa8;" horiz-adv-x="1024" 
d="M322 1333q33 0 54 -22t21 -54q0 -30 -21 -51.5t-54 -21.5q-30 0 -52 22t-22 51q0 31 21.5 53.5t52.5 22.5zM702 1333q31 0 52.5 -22.5t21.5 -53.5q0 -29 -22 -51t-52 -22q-33 0 -54 21.5t-21 51.5q0 32 21 54t54 22z" />
    <glyph glyph-name="copyright" unicode="&#xa9;" horiz-adv-x="1636" 
d="M817 1380q198 0 358.5 -91t251.5 -251t91 -358t-91 -358t-251.5 -251t-358.5 -91t-358 91t-251 251t-91 358t91 358t251 251t358 91zM817 1307q-130 0 -245 -47.5t-197.5 -130.5t-130 -199.5t-47.5 -249.5t47.5 -249.5t130 -199.5t197.5 -130.5t245 -47.5q175 0 317 81
t223 225t81 321t-81 321t-223 225t-317 81zM834 1049q151 0 237 -74v-92h-6q-79 94 -227 94q-133 0 -215 -83t-82 -214t82 -214t215 -83q148 0 227 94h6v-92q-90 -74 -237 -74q-168 0 -272.5 103.5t-104.5 265.5t104.5 265.5t272.5 103.5z" />
    <glyph glyph-name="ordfeminine" unicode="&#xaa;" horiz-adv-x="927" 
d="M793 698h-76l-2 127h-4q-39 -65 -112 -102t-169 -37q-149 0 -245.5 97.5t-96.5 248.5q0 152 96.5 250t245.5 98q96 0 168.5 -36t112.5 -101h4l2 115h76v-660zM442 764q116 0 191.5 75.5t75.5 192.5q0 119 -75.5 195t-191.5 76q-117 0 -192.5 -75.5t-75.5 -195.5
q0 -117 75.5 -192.5t192.5 -75.5z" />
    <glyph glyph-name="guillemotleft" unicode="&#xab;" horiz-adv-x="956" 
d="M471 172v-117l-401 418v8l401 418v-119l-297 -303zM848 172v-117l-402 418v8l402 418v-119l-297 -303z" />
    <glyph glyph-name="logicalnot" unicode="&#xac;" horiz-adv-x="1331" 
d="M1214 201h-94v510h-999v94h1093v-604z" />
    <glyph glyph-name="uni00AD" unicode="&#xad;" horiz-adv-x="757" 
d="M98 504v104h561v-104h-561z" />
    <glyph glyph-name="registered" unicode="&#xae;" horiz-adv-x="1636" 
d="M817 1380q198 0 358.5 -91t251.5 -251t91 -358t-91 -358t-251.5 -251t-358.5 -91t-358 91t-251 251t-91 358t91 358t251 251t358 91zM817 53q175 0 317 81t223 225t81 321t-81 321t-223 225t-317 81q-130 0 -245 -47.5t-197.5 -130.5t-130 -199.5t-47.5 -249.5
t47.5 -249.5t130 -199.5t197.5 -130.5t245 -47.5zM1120 821q0 -187 -188 -211l209 -288h-97l-198 284h-207v-284h-80v716h311q250 0 250 -217zM639 678h227q172 0 172 143q0 146 -172 146h-227v-289z" />
    <glyph glyph-name="macron" unicode="&#xaf;" horiz-adv-x="1024" 
d="M209 1212v82h606v-82h-606z" />
    <glyph glyph-name="degree" unicode="&#xb0;" horiz-adv-x="794" 
d="M397 1380q129 0 215 -86t86 -215t-86 -215t-215 -86q-130 0 -215.5 86t-85.5 215t85.5 215t215.5 86zM397 1286q-86 0 -144 -59t-58 -148t58 -148t144 -59q87 0 145 59t58 148t-58 148t-145 59z" />
    <glyph glyph-name="plusminus" unicode="&#xb1;" horiz-adv-x="1331" 
d="M1212 659h-499v-479h-95v479h-499v95h499v479h95v-479h499v-95zM1212 94v-94h-1093v94h1093z" />
    <glyph glyph-name="twosuperior" unicode="&#xb2;" 
d="M705 872v-77h-570v82l160 127q189 151 256 232.5t67 158.5q0 85 -53.5 129.5t-156.5 44.5q-147 0 -254 -107h-7v94q51 42 122 66.5t141 24.5q142 0 218.5 -63.5t76.5 -182.5q0 -97 -72.5 -189t-278.5 -254l-104 -81v-5h455z" />
    <glyph glyph-name="threesuperior" unicode="&#xb3;" 
d="M584 1229v-4q73 -23 112 -75.5t39 -129.5q0 -112 -84 -175t-233 -63q-92 0 -167 25t-118 70v96h6q41 -53 114.5 -83t162.5 -30q111 0 172 43.5t61 124.5q0 78 -56.5 118t-164.5 40h-131v76h113q108 0 164.5 38t56.5 111q0 76 -57.5 117t-163.5 41q-72 0 -138.5 -27.5
t-113.5 -77.5h-6v95q44 40 116 64t148 24q141 0 221 -60t80 -166q0 -138 -133 -192z" />
    <glyph glyph-name="acute" unicode="&#xb4;" horiz-adv-x="1024" 
d="M438 1112l238 309h121l-254 -309h-105z" />
    <glyph glyph-name="uni00B5" unicode="&#xb5;" horiz-adv-x="1181" 
d="M1030 0h-92l-2 197h-4q-50 -105 -146 -161t-227 -56q-194 0 -299 124h-4v-493h-104v1343h104v-536q0 -161 85.5 -252.5t236.5 -91.5q160 0 254 106t94 287v487h104v-954z" />
    <glyph glyph-name="paragraph" unicode="&#xb6;" horiz-adv-x="1155" 
d="M963 -389h-84v1745h-287v-1745h-84v1001q-212 9 -320 112t-108 298q0 204 117.5 308t347.5 104h536v-78h-118v-1745z" />
    <glyph glyph-name="periodcentered" unicode="&#xb7;" horiz-adv-x="479" 
d="M240 762q34 0 56.5 -23.5t22.5 -58.5q0 -34 -22.5 -57t-56.5 -23t-57 23t-23 57q0 35 23 58.5t57 23.5z" />
    <glyph glyph-name="cedilla" unicode="&#xb8;" horiz-adv-x="1024" 
d="M530 -127q76 0 117 -38.5t41 -100.5q0 -144 -192 -144q-100 0 -160 37v86h6q64 -47 154 -47q55 0 81.5 20t26.5 50q0 71 -108 71q-43 0 -95 -18v21l95 190h71l-61 -125v-4q10 2 24 2z" />
    <glyph glyph-name="onesuperior" unicode="&#xb9;" 
d="M592 795h-84v733l-229 -148v90l247 164h66v-839z" />
    <glyph glyph-name="ordmasculine" unicode="&#xba;" horiz-adv-x="882" 
d="M442 1380q154 0 253.5 -97.5t99.5 -250.5q0 -152 -99.5 -249t-253.5 -97t-254 97t-100 249q0 153 100 250.5t254 97.5zM442 1303q-117 0 -192.5 -75.5t-75.5 -195.5q0 -117 75.5 -192.5t192.5 -75.5q116 0 191.5 75.5t75.5 192.5q0 119 -75.5 195t-191.5 76z" />
    <glyph glyph-name="guillemotright" unicode="&#xbb;" horiz-adv-x="956" 
d="M487 782v117l402 -418v-8l-402 -418v119l297 303zM111 782v117l401 -418v-8l-401 -418v119l297 303z" />
    <glyph glyph-name="onequarter" unicode="&#xbc;" horiz-adv-x="1978" 
d="M592 0l881 1360h94l-881 -1360h-94zM1810 0h-84v176h-497v74l495 590h86v-586h119v-78h-119v-176zM1329 254h397v471zM592 520h-84v733l-229 -147v90l247 164h66v-840z" />
    <glyph glyph-name="onehalf" unicode="&#xbd;" horiz-adv-x="1978" 
d="M502 0l880 1360h95l-881 -1360h-94zM1843 78v-78h-569v82l160 127q189 151 256 232.5t67 158.5q0 85 -54 129.5t-157 44.5q-148 0 -254 -106h-6v94q51 41 121.5 65.5t140.5 24.5q142 0 218.5 -63.5t76.5 -182.5q0 -97 -72 -188.5t-278 -253.5l-104 -82v-4h454zM592 520
h-84v733l-229 -147v90l247 164h66v-840z" />
    <glyph glyph-name="threequarters" unicode="&#xbe;" horiz-adv-x="1978" 
d="M608 0l881 1360h94l-881 -1360h-94zM1810 0h-84v176h-497v74l495 590h86v-586h119v-78h-119v-176zM1329 254h397v471zM584 954v-4q73 -23 112 -75.5t39 -129.5q0 -112 -83.5 -174.5t-233.5 -62.5q-92 0 -167 25t-118 69v96h6q41 -53 114.5 -82.5t162.5 -29.5
q111 0 172 43.5t61 124.5q0 78 -56.5 117.5t-164.5 39.5h-131v76h113q108 0 164.5 38.5t56.5 111.5q0 76 -57.5 116.5t-163.5 40.5q-72 0 -138.5 -27.5t-113.5 -76.5h-6v94q44 40 116 64t148 24q141 0 221 -59.5t80 -165.5q0 -139 -133 -193z" />
    <glyph glyph-name="questiondown" unicode="&#xbf;" horiz-adv-x="980" 
d="M514 -20q-212 0 -332.5 98.5t-120.5 271.5q0 162 106 267t347 180v223h98v-291q-235 -61 -338.5 -149t-103.5 -224q0 -132 91 -206t255 -74q120 0 229 45.5t185 128.5h6v-121q-79 -70 -190.5 -109.5t-231.5 -39.5zM563 1219q-34 0 -57 23t-23 58q0 34 23 57t57 23t57 -23
t23 -57q0 -35 -23 -58t-57 -23z" />
    <glyph glyph-name="Agrave" unicode="&#xc0;" horiz-adv-x="1476" 
d="M1309 0l-154 328h-838l-153 -328h-121l641 1360h107l643 -1360h-125zM739 1225h-4l-370 -795h743zM705 1501l-254 309h120l238 -309h-104z" />
    <glyph glyph-name="Aacute" unicode="&#xc1;" horiz-adv-x="1476" 
d="M1309 0l-154 328h-838l-153 -328h-121l641 1360h107l643 -1360h-125zM739 1225h-4l-370 -795h743zM668 1501l237 309h121l-254 -309h-104z" />
    <glyph glyph-name="Acircumflex" unicode="&#xc2;" horiz-adv-x="1476" 
d="M1309 0l-154 328h-838l-153 -328h-121l641 1360h107l643 -1360h-125zM739 1225h-4l-370 -795h743zM739 1731l-190 -230h-103l248 309h88l248 -309h-102z" />
    <glyph glyph-name="Atilde" unicode="&#xc3;" horiz-adv-x="1476" 
d="M1309 0l-154 328h-838l-153 -328h-121l641 1360h107l643 -1360h-125zM739 1225h-4l-370 -795h743zM1042 1757v-104q-26 -48 -72 -75.5t-100 -27.5q-36 0 -68.5 13t-78.5 47q-69 51 -119 51q-99 0 -162 -121h-6v102q26 50 71.5 77.5t100.5 27.5q37 0 69.5 -12.5
t78.5 -46.5q40 -30 65.5 -41t52.5 -11q99 0 162 121h6z" />
    <glyph glyph-name="Adieresis" unicode="&#xc4;" horiz-adv-x="1476" 
d="M1309 0l-154 328h-838l-153 -328h-121l641 1360h107l643 -1360h-125zM739 1225h-4l-370 -795h743zM549 1722q33 0 54.5 -22t21.5 -53q0 -30 -21.5 -52t-54.5 -22q-30 0 -52 22t-22 52q0 31 21.5 53t52.5 22zM930 1722q31 0 52.5 -22t21.5 -53q0 -30 -22 -52t-52 -22
q-33 0 -54.5 22t-21.5 52q0 31 21.5 53t54.5 22z" />
    <glyph glyph-name="Aring" unicode="&#xc5;" horiz-adv-x="1476" 
d="M1309 0l-154 328h-838l-153 -328h-121l641 1360h107l643 -1360h-125zM739 1225h-4l-370 -795h743zM739 1831q73 0 122.5 -49.5t49.5 -122.5t-49.5 -122.5t-122.5 -49.5t-122.5 49.5t-49.5 122.5t49.5 122.5t122.5 49.5zM739 1749q-38 0 -63 -26t-25 -64t25 -64t63 -26
t63 26t25 64t-25 64t-63 26z" />
    <glyph glyph-name="AE" unicode="&#xc6;" horiz-adv-x="2117" 
d="M1151 741h717v-102h-717v-537h864v-102h-977v328h-653l-231 -328h-131l970 1360h1022v-103h-864v-516zM1038 1245h-4l-575 -815h579v815z" />
    <glyph glyph-name="Ccedilla" unicode="&#xc7;" horiz-adv-x="1357" 
d="M799 1278q-269 0 -436.5 -166.5t-167.5 -431.5t167.5 -431.5t436.5 -166.5q286 0 448 180h6v-131q-172 -148 -444 -151l-51 -105v-4q10 2 24 2q76 0 117 -38.5t41 -100.5q0 -144 -192 -144q-100 0 -160 37v86h6q64 -47 154 -47q55 0 81.5 20t26.5 50q0 71 -108 71
q-43 0 -95 -18v21l84 172q-293 19 -475 212t-182 486q0 152 52.5 282t145.5 222t226.5 144t290.5 52q293 0 458 -151v-131h-6q-77 88 -193.5 134t-254.5 46z" />
    <glyph glyph-name="Egrave" unicode="&#xc8;" horiz-adv-x="1251" 
d="M1001 741v-102h-716v-537h864v-102h-977v1360h977v-103h-864v-516h716zM625 1501l-254 309h121l237 -309h-104z" />
    <glyph glyph-name="Eacute" unicode="&#xc9;" horiz-adv-x="1251" 
d="M1001 741v-102h-716v-537h864v-102h-977v1360h977v-103h-864v-516h716zM588 1501l237 309h121l-254 -309h-104z" />
    <glyph glyph-name="Ecircumflex" unicode="&#xca;" horiz-adv-x="1251" 
d="M1001 741v-102h-716v-537h864v-102h-977v1360h977v-103h-864v-516h716zM659 1731l-190 -230h-102l247 309h88l248 -309h-102z" />
    <glyph glyph-name="Edieresis" unicode="&#xcb;" horiz-adv-x="1251" 
d="M1001 741v-102h-716v-537h864v-102h-977v1360h977v-103h-864v-516h716zM469 1722q33 0 54.5 -22t21.5 -53q0 -30 -21.5 -52t-54.5 -22q-30 0 -52 22t-22 52q0 31 21.5 53t52.5 22zM850 1722q31 0 52.5 -22t21.5 -53q0 -30 -22 -52t-52 -22q-33 0 -54.5 22t-21.5 52
q0 31 21.5 53t54.5 22z" />
    <glyph glyph-name="Igrave" unicode="&#xcc;" horiz-adv-x="456" 
d="M172 0v1360h113v-1360h-113zM195 1501l-254 309h120l238 -309h-104z" />
    <glyph glyph-name="Iacute" unicode="&#xcd;" horiz-adv-x="456" 
d="M172 0v1360h113v-1360h-113zM158 1501l237 309h121l-254 -309h-104z" />
    <glyph glyph-name="Icircumflex" unicode="&#xce;" horiz-adv-x="456" 
d="M172 0v1360h113v-1360h-113zM229 1731l-190 -230h-102l247 309h88l248 -309h-102z" />
    <glyph glyph-name="Idieresis" unicode="&#xcf;" horiz-adv-x="456" 
d="M172 0v1360h113v-1360h-113zM39 1722q33 0 54.5 -22t21.5 -53q0 -30 -21.5 -52t-54.5 -22q-30 0 -52 22t-22 52q0 31 21.5 53t52.5 22zM420 1722q31 0 52.5 -22t21.5 -53q0 -30 -22 -52t-52 -22q-33 0 -54.5 22t-21.5 52q0 31 21.5 53t54.5 22z" />
    <glyph glyph-name="Eth" unicode="&#xd0;" horiz-adv-x="1517" 
d="M201 1360h516q334 0 526.5 -181.5t192.5 -496.5q0 -318 -192 -500t-527 -182h-516v641h-158v98h158v621zM313 102h400q284 0 446 155t162 425q0 269 -162 422t-446 153h-400v-518h451v-98h-451v-539z" />
    <glyph glyph-name="Ntilde" unicode="&#xd1;" horiz-adv-x="1517" 
d="M1346 0h-140l-919 1243h-4v-1243h-111v1360h160l899 -1213h4v1213h111v-1360zM1063 1757v-104q-26 -48 -72 -75.5t-100 -27.5q-68 0 -148 60q-69 51 -118 51q-99 0 -162 -121h-6v102q26 50 71.5 77.5t100.5 27.5q37 0 69 -12.5t78 -46.5q40 -29 65.5 -40.5t53.5 -11.5
q99 0 162 121h6z" />
    <glyph glyph-name="Ograve" unicode="&#xd2;" horiz-adv-x="1568" 
d="M784 1380q204 0 364.5 -89t250.5 -249t90 -362t-90 -362t-250.5 -249t-364.5 -89t-364.5 89t-250 248.5t-89.5 362.5t89.5 362.5t250 248.5t364.5 89zM784 1278q-259 0 -424 -167.5t-165 -430.5t165 -430.5t424 -167.5t424.5 167.5t165.5 430.5t-165.5 430.5
t-424.5 167.5zM750 1501l-254 309h120l238 -309h-104z" />
    <glyph glyph-name="Oacute" unicode="&#xd3;" horiz-adv-x="1568" 
d="M784 1380q204 0 364.5 -89t250.5 -249t90 -362t-90 -362t-250.5 -249t-364.5 -89t-364.5 89t-250 248.5t-89.5 362.5t89.5 362.5t250 248.5t364.5 89zM784 1278q-259 0 -424 -167.5t-165 -430.5t165 -430.5t424 -167.5t424.5 167.5t165.5 430.5t-165.5 430.5
t-424.5 167.5zM713 1501l237 309h121l-254 -309h-104z" />
    <glyph glyph-name="Ocircumflex" unicode="&#xd4;" horiz-adv-x="1568" 
d="M784 1380q204 0 364.5 -89t250.5 -249t90 -362t-90 -362t-250.5 -249t-364.5 -89t-364.5 89t-250 248.5t-89.5 362.5t89.5 362.5t250 248.5t364.5 89zM784 1278q-259 0 -424 -167.5t-165 -430.5t165 -430.5t424 -167.5t424.5 167.5t165.5 430.5t-165.5 430.5
t-424.5 167.5zM784 1731l-190 -230h-102l247 309h88l248 -309h-102z" />
    <glyph glyph-name="Otilde" unicode="&#xd5;" horiz-adv-x="1568" 
d="M784 1380q204 0 364.5 -89t250.5 -249t90 -362t-90 -362t-250.5 -249t-364.5 -89t-364.5 89t-250 248.5t-89.5 362.5t89.5 362.5t250 248.5t364.5 89zM784 1278q-259 0 -424 -167.5t-165 -430.5t165 -430.5t424 -167.5t424.5 167.5t165.5 430.5t-165.5 430.5
t-424.5 167.5zM1087 1757v-104q-26 -48 -72 -75.5t-100 -27.5q-36 0 -68.5 13t-78.5 47q-69 51 -119 51q-99 0 -162 -121h-6v102q26 50 71.5 77.5t100.5 27.5q37 0 69.5 -12.5t78.5 -46.5q40 -29 65.5 -40.5t53.5 -11.5q98 0 161 121h6z" />
    <glyph glyph-name="Odieresis" unicode="&#xd6;" horiz-adv-x="1568" 
d="M784 1380q204 0 364.5 -89t250.5 -249t90 -362t-90 -362t-250.5 -249t-364.5 -89t-364.5 89t-250 248.5t-89.5 362.5t89.5 362.5t250 248.5t364.5 89zM784 1278q-259 0 -424 -167.5t-165 -430.5t165 -430.5t424 -167.5t424.5 167.5t165.5 430.5t-165.5 430.5
t-424.5 167.5zM594 1722q33 0 54.5 -22t21.5 -53q0 -30 -21.5 -52t-54.5 -22q-30 0 -52 22t-22 52q0 31 21.5 53t52.5 22zM975 1722q31 0 52.5 -22t21.5 -53q0 -30 -22 -52t-52 -22q-33 0 -54.5 22t-21.5 52q0 31 21.5 53t54.5 22z" />
    <glyph glyph-name="multiply" unicode="&#xd7;" horiz-adv-x="1331" 
d="M1171 176l-67 -67l-438 438l-439 -438l-67 67l438 438l-438 439l67 67l439 -438l438 438l67 -67l-438 -439z" />
    <glyph glyph-name="Oslash" unicode="&#xd8;" horiz-adv-x="1568" 
d="M1489 1360l-182 -193q182 -195 182 -487q0 -202 -90 -362t-250.5 -249t-364.5 -89q-263 0 -452 147l-119 -127h-133l182 193q-182 195 -182 487q0 203 89.5 362.5t250 248.5t364.5 89q264 0 453 -147l119 127h133zM195 680q0 -247 143 -406l823 879q-153 125 -377 125
q-259 0 -424 -167.5t-165 -430.5zM1374 680q0 246 -143 405l-823 -878q153 -125 376 -125q259 0 424.5 167.5t165.5 430.5z" />
    <glyph glyph-name="Ugrave" unicode="&#xd9;" horiz-adv-x="1425" 
d="M1288 1360v-791q0 -287 -147.5 -438t-427.5 -151q-281 0 -428.5 151t-147.5 438v791h113v-787q0 -238 119.5 -364.5t345.5 -126.5q224 0 343.5 126.5t119.5 364.5v787h110zM678 1501l-254 309h121l237 -309h-104z" />
    <glyph glyph-name="Uacute" unicode="&#xda;" horiz-adv-x="1425" 
d="M1288 1360v-791q0 -287 -147.5 -438t-427.5 -151q-281 0 -428.5 151t-147.5 438v791h113v-787q0 -238 119.5 -364.5t345.5 -126.5q224 0 343.5 126.5t119.5 364.5v787h110zM641 1501l238 309h120l-254 -309h-104z" />
    <glyph glyph-name="Ucircumflex" unicode="&#xdb;" horiz-adv-x="1425" 
d="M1288 1360v-791q0 -287 -147.5 -438t-427.5 -151q-281 0 -428.5 151t-147.5 438v791h113v-787q0 -238 119.5 -364.5t345.5 -126.5q224 0 343.5 126.5t119.5 364.5v787h110zM713 1731l-191 -230h-102l248 309h88l248 -309h-103z" />
    <glyph glyph-name="Udieresis" unicode="&#xdc;" horiz-adv-x="1425" 
d="M1288 1360v-791q0 -287 -147.5 -438t-427.5 -151q-281 0 -428.5 151t-147.5 438v791h113v-787q0 -238 119.5 -364.5t345.5 -126.5q224 0 343.5 126.5t119.5 364.5v787h110zM522 1722q33 0 54.5 -22t21.5 -53q0 -30 -21.5 -52t-54.5 -22q-30 0 -51.5 22t-21.5 52
q0 31 21 53t52 22zM903 1722q31 0 52.5 -22t21.5 -53q0 -30 -22 -52t-52 -22q-33 0 -54.5 22t-21.5 52q0 31 21.5 53t54.5 22z" />
    <glyph glyph-name="Yacute" unicode="&#xdd;" horiz-adv-x="1341" 
d="M731 0h-113v610l-595 750h143l508 -651l508 651h137l-588 -744v-616zM598 1501l238 309h120l-254 -309h-104z" />
    <glyph glyph-name="Thorn" unicode="&#xde;" horiz-adv-x="1280" 
d="M285 1120h463q230 0 347 -104t117 -307t-117 -307.5t-347 -104.5h-463v-297h-113v1360h113v-240zM285 399h458q355 0 355 310q0 309 -355 309h-458v-619z" />
    <glyph glyph-name="germandbls" unicode="&#xdf;" horiz-adv-x="1132" 
d="M553 1454q163 0 258.5 -83t95.5 -224q0 -91 -34 -156.5t-115 -124.5q-52 -38 -72 -66.5t-20 -64.5q0 -54 36.5 -86.5t131.5 -60.5q138 -40 194.5 -110t56.5 -191q0 -147 -95.5 -227t-272.5 -80q-94 0 -184.5 27t-147.5 71v121h6q52 -57 139.5 -91t180.5 -34
q129 0 199.5 56t70.5 157q0 81 -45.5 129.5t-157.5 81.5q-120 36 -168.5 89.5t-48.5 143.5q0 63 26 108t97 101q68 54 94.5 98t26.5 103q0 103 -67 161t-185 58q-158 0 -230.5 -76t-72.5 -242v-1042h-105v1055q0 399 408 399z" />
    <glyph glyph-name="agrave" unicode="&#xe0;" horiz-adv-x="1224" 
d="M1079 0h-92l-2 197h-4q-58 -103 -164.5 -160t-247.5 -57q-214 0 -351.5 139.5t-137.5 357.5t137.5 358t351.5 140q141 0 247.5 -57t164.5 -160h4l2 196h92v-954zM582 74q175 0 287 112.5t112 290.5t-112 291t-287 113q-173 0 -284.5 -113t-111.5 -291t111.5 -290.5
t284.5 -112.5zM545 1112l-254 309h121l237 -309h-104z" />
    <glyph glyph-name="aacute" unicode="&#xe1;" horiz-adv-x="1224" 
d="M1079 0h-92l-2 197h-4q-58 -103 -164.5 -160t-247.5 -57q-214 0 -351.5 139.5t-137.5 357.5t137.5 358t351.5 140q141 0 247.5 -57t164.5 -160h4l2 196h92v-954zM582 74q175 0 287 112.5t112 290.5t-112 291t-287 113q-173 0 -284.5 -113t-111.5 -291t111.5 -290.5
t284.5 -112.5zM508 1112l237 309h121l-254 -309h-104z" />
    <glyph glyph-name="acircumflex" unicode="&#xe2;" horiz-adv-x="1224" 
d="M1079 0h-92l-2 197h-4q-58 -103 -164.5 -160t-247.5 -57q-214 0 -351.5 139.5t-137.5 357.5t137.5 358t351.5 140q141 0 247.5 -57t164.5 -160h4l2 196h92v-954zM582 74q175 0 287 112.5t112 290.5t-112 291t-287 113q-173 0 -284.5 -113t-111.5 -291t111.5 -290.5
t284.5 -112.5zM580 1341l-191 -229h-102l248 309h88l247 -309h-102z" />
    <glyph glyph-name="atilde" unicode="&#xe3;" horiz-adv-x="1224" 
d="M1079 0h-92l-2 197h-4q-58 -103 -164.5 -160t-247.5 -57q-214 0 -351.5 139.5t-137.5 357.5t137.5 358t351.5 140q141 0 247.5 -57t164.5 -160h4l2 196h92v-954zM582 74q175 0 287 112.5t112 290.5t-112 291t-287 113q-173 0 -284.5 -113t-111.5 -291t111.5 -290.5
t284.5 -112.5zM883 1368v-104q-26 -48 -72 -75.5t-100 -27.5q-68 0 -148 60q-69 51 -119 51q-98 0 -161 -121h-7v102q26 50 72 77.5t101 27.5q36 0 68.5 -13t78.5 -47q69 -51 119 -51q99 0 162 121h6z" />
    <glyph glyph-name="adieresis" unicode="&#xe4;" horiz-adv-x="1224" 
d="M1079 0h-92l-2 197h-4q-58 -103 -164.5 -160t-247.5 -57q-214 0 -351.5 139.5t-137.5 357.5t137.5 358t351.5 140q141 0 247.5 -57t164.5 -160h4l2 196h92v-954zM582 74q175 0 287 112.5t112 290.5t-112 291t-287 113q-173 0 -284.5 -113t-111.5 -291t111.5 -290.5
t284.5 -112.5zM389 1333q33 0 54.5 -22.5t21.5 -53.5q0 -30 -21.5 -51.5t-54.5 -21.5q-31 0 -52.5 22t-21.5 51q0 31 21.5 53.5t52.5 22.5zM770 1333q31 0 52.5 -22.5t21.5 -53.5q0 -29 -22 -51t-52 -22q-33 0 -54.5 21.5t-21.5 51.5q0 31 21.5 53.5t54.5 22.5z" />
    <glyph glyph-name="aring" unicode="&#xe5;" horiz-adv-x="1224" 
d="M1079 0h-92l-2 197h-4q-58 -103 -164.5 -160t-247.5 -57q-214 0 -351.5 139.5t-137.5 357.5t137.5 358t351.5 140q141 0 247.5 -57t164.5 -160h4l2 196h92v-954zM582 74q175 0 287 112.5t112 290.5t-112 291t-287 113q-173 0 -284.5 -113t-111.5 -291t111.5 -290.5
t284.5 -112.5zM580 1442q74 0 123 -49t49 -123t-49 -123t-123 -49t-123 49t-49 123t49 123t123 49zM580 1360q-38 0 -63 -26t-25 -64t25 -64t63 -26t63 26t25 64t-25 64t-63 26z" />
    <glyph glyph-name="ae" unicode="&#xe6;" horiz-adv-x="2039" 
d="M1960 451h-881q9 -174 128.5 -275.5t316.5 -101.5q219 0 366 141h6v-111q-140 -124 -362 -124q-167 0 -283.5 57t-175.5 158h-4l-2 -195h-84l-2 195h-4q-56 -101 -162.5 -158t-247.5 -57q-214 0 -351.5 139.5t-137.5 357.5t137.5 358t351.5 140q141 0 247.5 -57
t162.5 -158h4l2 194h84l2 -194h4q57 101 164 158t252 57q216 0 342.5 -125t126.5 -336v-63zM582 74q175 0 287 112.5t112 290.5t-112 291t-287 113q-173 0 -284.5 -113t-111.5 -291t111.5 -290.5t284.5 -112.5zM1079 541h785q-9 154 -115 247t-274 93q-162 0 -268.5 -93.5
t-127.5 -246.5z" />
    <glyph glyph-name="ccedilla" unicode="&#xe7;" horiz-adv-x="1015" 
d="M598 881q-185 0 -298.5 -113t-113.5 -291q0 -176 114 -289.5t298 -113.5q194 0 311 135h6v-121q-108 -102 -301 -108l-51 -105v-4q10 2 25 2q76 0 116.5 -38.5t40.5 -100.5q0 -144 -192 -144q-100 0 -160 37v86h6q64 -47 154 -47q55 0 82 20t27 50q0 71 -109 71
q-42 0 -94 -18v21l84 172q-210 15 -336.5 151.5t-126.5 343.5q0 220 141 359t371 139q209 0 323 -111v-119h-6q-118 136 -311 136z" />
    <glyph glyph-name="egrave" unicode="&#xe8;" horiz-adv-x="1140" 
d="M1063 451h-877q9 -174 127.5 -275.5t313.5 -101.5q219 0 366 141h6v-111q-66 -60 -162.5 -92t-209.5 -32q-250 0 -398.5 135t-148.5 362q0 218 140 358t358 140q221 0 353 -125.5t132 -335.5v-63zM580 881q-158 0 -266 -94t-128 -246h781q-9 154 -114.5 247t-272.5 93z
M545 1112l-254 309h121l237 -309h-104z" />
    <glyph glyph-name="eacute" unicode="&#xe9;" horiz-adv-x="1140" 
d="M1063 451h-877q9 -174 127.5 -275.5t313.5 -101.5q219 0 366 141h6v-111q-66 -60 -162.5 -92t-209.5 -32q-250 0 -398.5 135t-148.5 362q0 218 140 358t358 140q221 0 353 -125.5t132 -335.5v-63zM580 881q-158 0 -266 -94t-128 -246h781q-9 154 -114.5 247t-272.5 93z
M508 1112l237 309h121l-254 -309h-104z" />
    <glyph glyph-name="ecircumflex" unicode="&#xea;" horiz-adv-x="1140" 
d="M1063 451h-877q9 -174 127.5 -275.5t313.5 -101.5q219 0 366 141h6v-111q-66 -60 -162.5 -92t-209.5 -32q-250 0 -398.5 135t-148.5 362q0 218 140 358t358 140q221 0 353 -125.5t132 -335.5v-63zM580 881q-158 0 -266 -94t-128 -246h781q-9 154 -114.5 247t-272.5 93z
M580 1341l-191 -229h-102l248 309h88l247 -309h-102z" />
    <glyph glyph-name="edieresis" unicode="&#xeb;" horiz-adv-x="1140" 
d="M1063 451h-877q9 -174 127.5 -275.5t313.5 -101.5q219 0 366 141h6v-111q-66 -60 -162.5 -92t-209.5 -32q-250 0 -398.5 135t-148.5 362q0 218 140 358t358 140q221 0 353 -125.5t132 -335.5v-63zM580 881q-158 0 -266 -94t-128 -246h781q-9 154 -114.5 247t-272.5 93z
M389 1333q33 0 54.5 -22.5t21.5 -53.5q0 -30 -21.5 -51.5t-54.5 -21.5q-31 0 -52.5 22t-21.5 51q0 31 21.5 53.5t52.5 22.5zM770 1333q31 0 52.5 -22.5t21.5 -53.5q0 -29 -22 -51t-52 -22q-33 0 -54.5 21.5t-21.5 51.5q0 31 21.5 53.5t54.5 22.5z" />
    <glyph glyph-name="igrave" unicode="&#xec;" horiz-adv-x="393" 
d="M145 0v954h105v-954h-105zM162 1112l-254 309h121l237 -309h-104z" />
    <glyph glyph-name="iacute" unicode="&#xed;" horiz-adv-x="393" 
d="M145 0v954h105v-954h-105zM125 1112l237 309h121l-254 -309h-104z" />
    <glyph glyph-name="icircumflex" unicode="&#xee;" horiz-adv-x="393" 
d="M145 0v954h105v-954h-105zM197 1341l-191 -229h-102l248 309h88l247 -309h-102z" />
    <glyph glyph-name="idieresis" unicode="&#xef;" horiz-adv-x="393" 
d="M145 0v954h105v-954h-105zM6 1333q33 0 54.5 -22.5t21.5 -53.5q0 -30 -21.5 -51.5t-54.5 -21.5q-30 0 -52 22t-22 51q0 31 21.5 53.5t52.5 22.5zM387 1333q31 0 52.5 -22.5t21.5 -53.5q0 -29 -21.5 -51t-52.5 -22q-33 0 -54.5 21.5t-21.5 51.5q0 31 21.5 53.5t54.5 22.5z
" />
    <glyph glyph-name="eth" unicode="&#xf0;" horiz-adv-x="1165" 
d="M940 1257l-133 -47q136 -136 207 -318.5t71 -399.5q0 -229 -140.5 -370.5t-362.5 -141.5q-220 0 -361 139t-141 358q0 218 137.5 358t351.5 140q115 0 207.5 -40.5t153.5 -113.5h4q-67 200 -225 355l-340 -119v90l266 94q-139 110 -348 186v7h192q135 -60 256 -158
l205 72v-91zM582 74q174 0 285.5 112.5t111.5 290.5t-111.5 291t-285.5 113q-173 0 -284.5 -113t-111.5 -291t111.5 -290.5t284.5 -112.5z" />
    <glyph glyph-name="ntilde" unicode="&#xf1;" horiz-adv-x="1142" 
d="M616 975q189 0 298.5 -115t109.5 -313v-547h-104v537q0 162 -85 253t-237 91q-161 0 -254.5 -106.5t-93.5 -289.5v-485h-105v954h91l2 -196h4q52 104 147 160.5t227 56.5zM874 1368v-104q-26 -48 -72 -75.5t-100 -27.5q-36 0 -68.5 13t-78.5 47q-69 51 -119 51
q-99 0 -162 -121h-6v102q26 50 71.5 77.5t100.5 27.5q68 0 148 -60q69 -51 119 -51q98 0 161 121h6z" />
    <glyph glyph-name="ograve" unicode="&#xf2;" horiz-adv-x="1165" 
d="M582 975q221 0 362 -140t141 -358q0 -219 -140.5 -358t-362.5 -139q-220 0 -361 139t-141 358q0 218 141 358t361 140zM582 881q-173 0 -284.5 -113t-111.5 -291t111.5 -290.5t284.5 -112.5q174 0 285.5 112.5t111.5 290.5t-111.5 291t-285.5 113zM547 1112l-254 309h121
l237 -309h-104z" />
    <glyph glyph-name="oacute" unicode="&#xf3;" horiz-adv-x="1165" 
d="M582 975q221 0 362 -140t141 -358q0 -219 -140.5 -358t-362.5 -139q-220 0 -361 139t-141 358q0 218 141 358t361 140zM582 881q-173 0 -284.5 -113t-111.5 -291t111.5 -290.5t284.5 -112.5q174 0 285.5 112.5t111.5 290.5t-111.5 291t-285.5 113zM510 1112l238 309h120
l-254 -309h-104z" />
    <glyph glyph-name="ocircumflex" unicode="&#xf4;" horiz-adv-x="1165" 
d="M582 975q221 0 362 -140t141 -358q0 -219 -140.5 -358t-362.5 -139q-220 0 -361 139t-141 358q0 218 141 358t361 140zM582 881q-173 0 -284.5 -113t-111.5 -291t111.5 -290.5t284.5 -112.5q174 0 285.5 112.5t111.5 290.5t-111.5 291t-285.5 113zM582 1341l-191 -229
h-102l248 309h88l247 -309h-102z" />
    <glyph glyph-name="otilde" unicode="&#xf5;" horiz-adv-x="1165" 
d="M582 975q221 0 362 -140t141 -358q0 -219 -140.5 -358t-362.5 -139q-220 0 -361 139t-141 358q0 218 141 358t361 140zM582 881q-173 0 -284.5 -113t-111.5 -291t111.5 -290.5t284.5 -112.5q174 0 285.5 112.5t111.5 290.5t-111.5 291t-285.5 113zM885 1368v-104
q-26 -48 -72 -75.5t-100 -27.5q-68 0 -148 60q-69 51 -119 51q-98 0 -161 -121h-6v102q26 50 71.5 77.5t100.5 27.5q36 0 68.5 -13t78.5 -47q69 -51 119 -51q99 0 162 121h6z" />
    <glyph glyph-name="odieresis" unicode="&#xf6;" horiz-adv-x="1165" 
d="M582 975q221 0 362 -140t141 -358q0 -219 -140.5 -358t-362.5 -139q-220 0 -361 139t-141 358q0 218 141 358t361 140zM582 881q-173 0 -284.5 -113t-111.5 -291t111.5 -290.5t284.5 -112.5q174 0 285.5 112.5t111.5 290.5t-111.5 291t-285.5 113zM391 1333
q33 0 54.5 -22.5t21.5 -53.5q0 -30 -21.5 -51.5t-54.5 -21.5q-31 0 -52.5 22t-21.5 51q0 31 21.5 53.5t52.5 22.5zM772 1333q31 0 52.5 -22.5t21.5 -53.5q0 -29 -22 -51t-52 -22q-33 0 -54.5 21.5t-21.5 51.5q0 31 21.5 53.5t54.5 22.5z" />
    <glyph glyph-name="divide" unicode="&#xf7;" horiz-adv-x="1331" 
d="M666 1182q32 0 52.5 -21t20.5 -53t-20.5 -53t-52.5 -21t-53 21t-21 53t21 53t53 21zM90 567v95h1151v-95h-1151zM666 195q32 0 52.5 -21t20.5 -53t-20.5 -53t-52.5 -21t-53 21t-21 53t21 53t53 21z" />
    <glyph glyph-name="oslash" unicode="&#xf8;" horiz-adv-x="1165" 
d="M1085 954l-124 -135q124 -140 124 -342q0 -219 -140.5 -358t-362.5 -139q-178 0 -310 96l-69 -76h-123l125 135q-125 134 -125 342q0 218 141 358t361 140q179 0 311 -96l70 75h122zM186 477q0 -154 88 -266l551 594q-105 76 -243 76q-173 0 -284.5 -113t-111.5 -291z
M979 477q0 155 -90 266l-549 -593q102 -76 242 -76q174 0 285.5 112.5t111.5 290.5z" />
    <glyph glyph-name="ugrave" unicode="&#xf9;" horiz-adv-x="1142" 
d="M997 0h-92l-2 193h-4q-51 -103 -146.5 -158t-226.5 -55q-189 0 -297 114t-108 314v546h104v-536q0 -161 85.5 -252.5t234.5 -91.5q160 0 254 106t94 287v487h104v-954zM524 1112l-254 309h121l238 -309h-105z" />
    <glyph glyph-name="uacute" unicode="&#xfa;" horiz-adv-x="1142" 
d="M997 0h-92l-2 193h-4q-51 -103 -146.5 -158t-226.5 -55q-189 0 -297 114t-108 314v546h104v-536q0 -161 85.5 -252.5t234.5 -91.5q160 0 254 106t94 287v487h104v-954zM487 1112l238 309h121l-254 -309h-105z" />
    <glyph glyph-name="ucircumflex" unicode="&#xfb;" horiz-adv-x="1142" 
d="M997 0h-92l-2 193h-4q-51 -103 -146.5 -158t-226.5 -55q-189 0 -297 114t-108 314v546h104v-536q0 -161 85.5 -252.5t234.5 -91.5q160 0 254 106t94 287v487h104v-954zM559 1341l-190 -229h-103l248 309h88l248 -309h-102z" />
    <glyph glyph-name="udieresis" unicode="&#xfc;" horiz-adv-x="1142" 
d="M997 0h-92l-2 193h-4q-51 -103 -146.5 -158t-226.5 -55q-189 0 -297 114t-108 314v546h104v-536q0 -161 85.5 -252.5t234.5 -91.5q160 0 254 106t94 287v487h104v-954zM369 1333q33 0 54 -22t21 -54q0 -30 -21 -51.5t-54 -21.5q-31 0 -52.5 22t-21.5 51q0 31 21.5 53.5
t52.5 22.5zM750 1333q30 0 51.5 -22.5t21.5 -53.5q0 -30 -21.5 -51.5t-51.5 -21.5q-33 0 -54.5 21.5t-21.5 51.5q0 31 21.5 53.5t54.5 22.5z" />
    <glyph glyph-name="yacute" unicode="&#xfd;" horiz-adv-x="1001" 
d="M348 -389h-108l204 426l-424 917h113l369 -800h4l366 800h109zM428 1112l238 309h120l-254 -309h-104z" />
    <glyph glyph-name="thorn" unicode="&#xfe;" horiz-adv-x="1222" 
d="M655 975q213 0 350.5 -140t137.5 -358t-137.5 -357.5t-350.5 -139.5q-136 0 -239.5 52t-161.5 146h-4v-567h-105v1823h105v-658h4q58 94 161.5 146.5t239.5 52.5zM641 74q174 0 284.5 112.5t110.5 290.5t-110.5 291t-284.5 113t-285.5 -113t-111.5 -291t111.5 -290.5
t285.5 -112.5z" />
    <glyph glyph-name="ydieresis" unicode="&#xff;" horiz-adv-x="1001" 
d="M348 -389h-108l204 426l-424 917h113l369 -800h4l366 800h109zM309 1333q33 0 54.5 -22.5t21.5 -53.5q0 -30 -21.5 -51.5t-54.5 -21.5q-30 0 -51.5 21.5t-21.5 51.5q0 31 21.5 53.5t51.5 22.5zM690 1333q31 0 52.5 -22.5t21.5 -53.5q0 -29 -22 -51t-52 -22
q-33 0 -54.5 21.5t-21.5 51.5q0 31 21.5 53.5t54.5 22.5z" />
    <glyph glyph-name="Amacron" unicode="&#x100;" horiz-adv-x="1476" 
d="M1309 0l-154 328h-838l-153 -328h-121l641 1360h107l643 -1360h-125zM739 1225h-4l-370 -795h743zM436 1602v81h606v-81h-606z" />
    <glyph glyph-name="amacron" unicode="&#x101;" horiz-adv-x="1224" 
d="M1079 0h-92l-2 197h-4q-58 -103 -164.5 -160t-247.5 -57q-214 0 -351.5 139.5t-137.5 357.5t137.5 358t351.5 140q141 0 247.5 -57t164.5 -160h4l2 196h92v-954zM582 74q175 0 287 112.5t112 290.5t-112 291t-287 113q-173 0 -284.5 -113t-111.5 -291t111.5 -290.5
t284.5 -112.5zM276 1212v82h607v-82h-607z" />
    <glyph glyph-name="Abreve" unicode="&#x102;" horiz-adv-x="1476" 
d="M1309 0l-154 328h-838l-153 -328h-121l641 1360h107l643 -1360h-125zM739 1225h-4l-370 -795h743zM963 1784h84q-19 -125 -98.5 -192.5t-209.5 -67.5t-209 67.5t-98 192.5h84q17 -85 74 -128.5t149 -43.5t149.5 43.5t74.5 128.5z" />
    <glyph glyph-name="abreve" unicode="&#x103;" horiz-adv-x="1224" 
d="M1079 0h-92l-2 197h-4q-58 -103 -164.5 -160t-247.5 -57q-214 0 -351.5 139.5t-137.5 357.5t137.5 358t351.5 140q141 0 247.5 -57t164.5 -160h4l2 196h92v-954zM582 74q175 0 287 112.5t112 290.5t-112 291t-287 113q-173 0 -284.5 -113t-111.5 -291t111.5 -290.5
t284.5 -112.5zM803 1395h84q-19 -125 -98 -192.5t-209 -67.5t-209.5 67.5t-98.5 192.5h84q17 -85 74.5 -128.5t149.5 -43.5t149 43.5t74 128.5z" />
    <glyph glyph-name="Aogonek" unicode="&#x104;" horiz-adv-x="1476" 
d="M1286 -334q75 0 141 60h7v-93q-65 -43 -158 -43q-85 0 -133.5 44.5t-48.5 123.5t51 149t149 124l-139 297h-838l-153 -328h-121l641 1360h107l643 -1360h-41q-102 -45 -158.5 -104.5t-56.5 -126.5q0 -44 30.5 -73.5t77.5 -29.5zM735 1225l-370 -795h743l-369 795h-4z" />
    <glyph glyph-name="aogonek" unicode="&#x105;" horiz-adv-x="1224" 
d="M1079 0h-41q-102 -45 -158.5 -104.5t-56.5 -126.5q0 -44 31 -73.5t78 -29.5q75 0 141 60h6v-93q-65 -43 -157 -43q-85 0 -134 44.5t-49 123.5q0 88 63.5 164t184.5 131l-2 144h-4q-58 -103 -164.5 -160t-247.5 -57q-214 0 -351.5 139.5t-137.5 357.5t137.5 358t351.5 140
q141 0 247.5 -57t164.5 -160h4l2 196h92v-954zM582 74q175 0 287 112.5t112 290.5t-112 291t-287 113q-173 0 -284.5 -113t-111.5 -291t111.5 -290.5t284.5 -112.5z" />
    <glyph glyph-name="Cacute" unicode="&#x106;" horiz-adv-x="1357" 
d="M795 1380q293 0 458 -151v-131h-6q-77 88 -193.5 134t-254.5 46q-269 0 -436.5 -166.5t-167.5 -431.5t167.5 -431.5t436.5 -166.5q286 0 448 180h6v-131q-175 -151 -458 -151q-157 0 -290.5 52t-226.5 144t-145.5 222t-52.5 282t52.5 282t145.5 222t226.5 144t290.5 52z
M686 1501l238 309h120l-253 -309h-105z" />
    <glyph glyph-name="cacute" unicode="&#x107;" horiz-adv-x="1015" 
d="M592 975q209 0 323 -111v-119h-6q-118 136 -311 136q-185 0 -298.5 -113t-113.5 -291q0 -176 114 -289.5t298 -113.5q194 0 311 135h6v-121q-114 -108 -323 -108q-230 0 -371 139t-141 358q0 220 141 359t371 139zM487 1112l238 309h121l-254 -309h-105z" />
    <glyph glyph-name="Ccircumflex" unicode="&#x108;" horiz-adv-x="1357" 
d="M795 1380q293 0 458 -151v-131h-6q-77 88 -193.5 134t-254.5 46q-269 0 -436.5 -166.5t-167.5 -431.5t167.5 -431.5t436.5 -166.5q286 0 448 180h6v-131q-175 -151 -458 -151q-157 0 -290.5 52t-226.5 144t-145.5 222t-52.5 282t52.5 282t145.5 222t226.5 144t290.5 52z
M758 1731l-191 -230h-102l248 309h88l248 -309h-103z" />
    <glyph glyph-name="ccircumflex" unicode="&#x109;" horiz-adv-x="1015" 
d="M592 975q209 0 323 -111v-119h-6q-118 136 -311 136q-185 0 -298.5 -113t-113.5 -291q0 -176 114 -289.5t298 -113.5q194 0 311 135h6v-121q-114 -108 -323 -108q-230 0 -371 139t-141 358q0 220 141 359t371 139zM559 1341l-190 -229h-103l248 309h88l248 -309h-102z
" />
    <glyph glyph-name="Cdotaccent" unicode="&#x10a;" horiz-adv-x="1357" 
d="M795 1380q293 0 458 -151v-131h-6q-77 88 -193.5 134t-254.5 46q-269 0 -436.5 -166.5t-167.5 -431.5t167.5 -431.5t436.5 -166.5q286 0 448 180h6v-131q-175 -151 -458 -151q-157 0 -290.5 52t-226.5 144t-145.5 222t-52.5 282t52.5 282t145.5 222t226.5 144t290.5 52z
M758 1726q32 0 55 -23.5t23 -55.5q0 -31 -23 -54.5t-55 -23.5t-55 23.5t-23 54.5q0 32 23 55.5t55 23.5z" />
    <glyph glyph-name="cdotaccent" unicode="&#x10b;" horiz-adv-x="1015" 
d="M592 975q209 0 323 -111v-119h-6q-118 136 -311 136q-185 0 -298.5 -113t-113.5 -291q0 -176 114 -289.5t298 -113.5q194 0 311 135h6v-121q-114 -108 -323 -108q-230 0 -371 139t-141 358q0 220 141 359t371 139zM559 1337q32 0 55 -24t23 -56q0 -31 -23 -54t-55 -23
t-55 23t-23 54q0 32 23 56t55 24z" />
    <glyph glyph-name="Ccaron" unicode="&#x10c;" horiz-adv-x="1357" 
d="M795 1380q293 0 458 -151v-131h-6q-77 88 -193.5 134t-254.5 46q-269 0 -436.5 -166.5t-167.5 -431.5t167.5 -431.5t436.5 -166.5q286 0 448 180h6v-131q-175 -151 -458 -151q-157 0 -290.5 52t-226.5 144t-145.5 222t-52.5 282t52.5 282t145.5 222t226.5 144t290.5 52z
M801 1501h-88l-248 309h102l191 -227l188 227h103z" />
    <glyph glyph-name="ccaron" unicode="&#x10d;" horiz-adv-x="1015" 
d="M592 975q209 0 323 -111v-119h-6q-118 136 -311 136q-185 0 -298.5 -113t-113.5 -291q0 -176 114 -289.5t298 -113.5q194 0 311 135h6v-121q-114 -108 -323 -108q-230 0 -371 139t-141 358q0 220 141 359t371 139zM602 1112h-88l-248 309h103l190 -227l189 227h102z" />
    <glyph glyph-name="Dcaron" unicode="&#x10e;" horiz-adv-x="1488" 
d="M172 1360h516q334 0 526.5 -181.5t192.5 -496.5q0 -318 -192 -500t-527 -182h-516v1360zM285 102h399q284 0 446 155t162 425q0 269 -162 422t-446 153h-399v-1155zM735 1501h-88l-248 309h103l190 -227l189 227h102z" />
    <glyph glyph-name="dcaron" unicode="&#x10f;" horiz-adv-x="1224" 
d="M1079 0h-92l-2 197h-4q-58 -103 -164.5 -160t-247.5 -57q-214 0 -351.5 139.5t-137.5 357.5t137.5 358t351.5 140q136 0 240 -54t162 -149h4v662h104v-1434zM582 74q175 0 287 112.5t112 290.5t-112 291t-287 113q-173 0 -284.5 -113t-111.5 -291t111.5 -290.5
t284.5 -112.5zM1174 1071l69 363h103l-91 -363h-81z" />
    <glyph glyph-name="Dcroat" unicode="&#x110;" horiz-adv-x="1517" 
d="M201 1360h516q334 0 526.5 -181.5t192.5 -496.5q0 -318 -192 -500t-527 -182h-516v641h-158v98h158v621zM313 102h400q284 0 446 155t162 425q0 269 -162 422t-446 153h-400v-518h451v-98h-451v-539z" />
    <glyph glyph-name="dcroat" unicode="&#x111;" horiz-adv-x="1243" 
d="M1079 1106v-1106h-92l-2 197h-4q-58 -103 -164.5 -160t-247.5 -57q-214 0 -351.5 139.5t-137.5 357.5t137.5 358t351.5 140q136 0 240 -54t162 -149h4v334h-428v90h428v238h104v-238h160v-90h-160zM582 74q175 0 287 112.5t112 290.5t-112 291t-287 113
q-173 0 -284.5 -113t-111.5 -291t111.5 -290.5t284.5 -112.5z" />
    <glyph glyph-name="Emacron" unicode="&#x112;" horiz-adv-x="1251" 
d="M1001 741v-102h-716v-537h864v-102h-977v1360h977v-103h-864v-516h716zM356 1602v81h607v-81h-607z" />
    <glyph glyph-name="emacron" unicode="&#x113;" horiz-adv-x="1140" 
d="M1063 451h-877q9 -174 127.5 -275.5t313.5 -101.5q219 0 366 141h6v-111q-66 -60 -162.5 -92t-209.5 -32q-250 0 -398.5 135t-148.5 362q0 218 140 358t358 140q221 0 353 -125.5t132 -335.5v-63zM580 881q-158 0 -266 -94t-128 -246h781q-9 154 -114.5 247t-272.5 93z
M276 1212v82h607v-82h-607z" />
    <glyph glyph-name="Ebreve" unicode="&#x114;" horiz-adv-x="1251" 
d="M1001 741v-102h-716v-537h864v-102h-977v1360h977v-103h-864v-516h716zM883 1784h84q-19 -125 -98.5 -192.5t-209.5 -67.5t-209 67.5t-98 192.5h84q17 -85 74 -128.5t149 -43.5t149.5 43.5t74.5 128.5z" />
    <glyph glyph-name="ebreve" unicode="&#x115;" horiz-adv-x="1140" 
d="M1063 451h-877q9 -174 127.5 -275.5t313.5 -101.5q219 0 366 141h6v-111q-66 -60 -162.5 -92t-209.5 -32q-250 0 -398.5 135t-148.5 362q0 218 140 358t358 140q221 0 353 -125.5t132 -335.5v-63zM580 881q-158 0 -266 -94t-128 -246h781q-9 154 -114.5 247t-272.5 93z
M803 1395h84q-19 -125 -98 -192.5t-209 -67.5t-209.5 67.5t-98.5 192.5h84q17 -85 74.5 -128.5t149.5 -43.5t149 43.5t74 128.5z" />
    <glyph glyph-name="Edotaccent" unicode="&#x116;" horiz-adv-x="1251" 
d="M1001 741v-102h-716v-537h864v-102h-977v1360h977v-103h-864v-516h716zM659 1726q32 0 55 -23.5t23 -55.5q0 -31 -23 -54.5t-55 -23.5t-54.5 23.5t-22.5 54.5q0 32 22.5 55.5t54.5 23.5z" />
    <glyph glyph-name="edotaccent" unicode="&#x117;" horiz-adv-x="1140" 
d="M1063 451h-877q9 -174 127.5 -275.5t313.5 -101.5q219 0 366 141h6v-111q-66 -60 -162.5 -92t-209.5 -32q-250 0 -398.5 135t-148.5 362q0 218 140 358t358 140q221 0 353 -125.5t132 -335.5v-63zM580 881q-158 0 -266 -94t-128 -246h781q-9 154 -114.5 247t-272.5 93z
M580 1337q32 0 54.5 -23.5t22.5 -56.5q0 -31 -22.5 -54t-54.5 -23t-55 23t-23 54q0 32 23 56t55 24z" />
    <glyph glyph-name="Eogonek" unicode="&#x118;" horiz-adv-x="1251" 
d="M285 741h716v-102h-716v-537h864v-102h-41q-102 -45 -158.5 -104.5t-56.5 -126.5q0 -44 30.5 -73.5t77.5 -29.5q76 0 142 60h6v-93q-65 -43 -158 -43q-85 0 -133.5 44.5t-48.5 123.5q0 135 145 238v4h-782v1360h977v-103h-864v-516z" />
    <glyph glyph-name="eogonek" unicode="&#x119;" horiz-adv-x="1140" 
d="M1063 451h-877q9 -174 127.5 -275.5t313.5 -101.5q219 0 366 141h6v-111q-31 -29 -106 -71q-203 -115 -203 -256q0 -45 32.5 -78t82.5 -33q73 0 139 60h6v-93q-65 -43 -157 -43q-84 0 -135.5 49t-51.5 132q0 118 99 209v4q-46 -4 -78 -4q-250 0 -398.5 135t-148.5 362
q0 218 140 358t358 140q221 0 353 -125.5t132 -335.5v-63zM186 541h781q-9 154 -114.5 247t-272.5 93q-158 0 -266 -94t-128 -246z" />
    <glyph glyph-name="Ecaron" unicode="&#x11a;" horiz-adv-x="1251" 
d="M1001 741v-102h-716v-537h864v-102h-977v1360h977v-103h-864v-516h716zM702 1501h-88l-247 309h102l190 -227l189 227h102z" />
    <glyph glyph-name="ecaron" unicode="&#x11b;" horiz-adv-x="1140" 
d="M1063 451h-877q9 -174 127.5 -275.5t313.5 -101.5q219 0 366 141h6v-111q-66 -60 -162.5 -92t-209.5 -32q-250 0 -398.5 135t-148.5 362q0 218 140 358t358 140q221 0 353 -125.5t132 -335.5v-63zM580 881q-158 0 -266 -94t-128 -246h781q-9 154 -114.5 247t-272.5 93z
M623 1112h-88l-248 309h102l191 -227l188 227h102z" />
    <glyph glyph-name="Gcircumflex" unicode="&#x11c;" horiz-adv-x="1447" 
d="M811 1278q-277 0 -446.5 -164t-169.5 -434t169.5 -434t446.5 -164q242 0 393 100v375h-467v102h576v-528q-187 -151 -506 -151q-328 0 -527.5 191.5t-199.5 508.5t199.5 508.5t527.5 191.5q319 0 506 -151v-131h-6q-98 94 -216.5 137t-279.5 43zM774 1731l-190 -230h-103
l248 309h88l248 -309h-102z" />
    <glyph glyph-name="gcircumflex" unicode="&#x11d;" horiz-adv-x="1224" 
d="M1079 954v-878q0 -230 -132.5 -358t-371.5 -128q-129 0 -234.5 38t-172.5 106v114h6q63 -78 164.5 -120.5t228.5 -42.5q195 0 301.5 102.5t106.5 292.5v106h-4q-58 -95 -162 -148.5t-240 -53.5q-214 0 -351.5 138.5t-137.5 356.5t137.5 357t351.5 139q141 0 247.5 -57
t164.5 -160h4l2 196h92zM582 78q175 0 287 112t112 289q0 178 -112 290t-287 112q-173 0 -284.5 -112t-111.5 -290q0 -176 112 -288.5t284 -112.5zM580 1341l-191 -229h-102l248 309h88l247 -309h-102z" />
    <glyph glyph-name="Gbreve" unicode="&#x11e;" horiz-adv-x="1447" 
d="M811 1278q-277 0 -446.5 -164t-169.5 -434t169.5 -434t446.5 -164q242 0 393 100v375h-467v102h576v-528q-187 -151 -506 -151q-328 0 -527.5 191.5t-199.5 508.5t199.5 508.5t527.5 191.5q319 0 506 -151v-131h-6q-98 94 -216.5 137t-279.5 43zM997 1784h84
q-19 -125 -98 -192.5t-209 -67.5t-209 67.5t-98 192.5h84q17 -85 74 -128.5t149 -43.5t149 43.5t74 128.5z" />
    <glyph glyph-name="gbreve" unicode="&#x11f;" horiz-adv-x="1224" 
d="M1079 954v-878q0 -230 -132.5 -358t-371.5 -128q-129 0 -234.5 38t-172.5 106v114h6q63 -78 164.5 -120.5t228.5 -42.5q195 0 301.5 102.5t106.5 292.5v106h-4q-58 -95 -162 -148.5t-240 -53.5q-214 0 -351.5 138.5t-137.5 356.5t137.5 357t351.5 139q141 0 247.5 -57
t164.5 -160h4l2 196h92zM582 78q175 0 287 112t112 289q0 178 -112 290t-287 112q-173 0 -284.5 -112t-111.5 -290q0 -176 112 -288.5t284 -112.5zM803 1395h84q-19 -125 -98 -192.5t-209 -67.5t-209.5 67.5t-98.5 192.5h84q17 -85 74.5 -128.5t149.5 -43.5t149 43.5
t74 128.5z" />
    <glyph glyph-name="Gdotaccent" unicode="&#x120;" horiz-adv-x="1447" 
d="M811 1278q-277 0 -446.5 -164t-169.5 -434t169.5 -434t446.5 -164q242 0 393 100v375h-467v102h576v-528q-187 -151 -506 -151q-328 0 -527.5 191.5t-199.5 508.5t199.5 508.5t527.5 191.5q319 0 506 -151v-131h-6q-98 94 -216.5 137t-279.5 43zM774 1726q32 0 55 -23.5
t23 -55.5q0 -31 -23 -54.5t-55 -23.5t-55 23.5t-23 54.5q0 32 23 55.5t55 23.5z" />
    <glyph glyph-name="gdotaccent" unicode="&#x121;" horiz-adv-x="1224" 
d="M1079 954v-878q0 -230 -132.5 -358t-371.5 -128q-129 0 -234.5 38t-172.5 106v114h6q63 -78 164.5 -120.5t228.5 -42.5q195 0 301.5 102.5t106.5 292.5v106h-4q-58 -95 -162 -148.5t-240 -53.5q-214 0 -351.5 138.5t-137.5 356.5t137.5 357t351.5 139q141 0 247.5 -57
t164.5 -160h4l2 196h92zM582 78q175 0 287 112t112 289q0 178 -112 290t-287 112q-173 0 -284.5 -112t-111.5 -290q0 -176 112 -288.5t284 -112.5zM580 1337q32 0 54.5 -23.5t22.5 -56.5q0 -31 -22.5 -54t-54.5 -23t-55 23t-23 54q0 32 23 56t55 24z" />
    <glyph glyph-name="uni0122" unicode="&#x122;" horiz-adv-x="1447" 
d="M811 1278q-277 0 -446.5 -164t-169.5 -434t169.5 -434t446.5 -164q242 0 393 100v375h-467v102h576v-528q-187 -151 -506 -151q-328 0 -527.5 191.5t-199.5 508.5t199.5 508.5t527.5 191.5q319 0 506 -151v-131h-6q-98 94 -216.5 137t-279.5 43zM498 -430l223 295h117
l-240 -295h-100z" />
    <glyph glyph-name="uni0123" unicode="&#x123;" horiz-adv-x="1224" 
d="M852 1421l-234 -309h-116l250 309h100zM1079 954v-878q0 -230 -132.5 -358t-371.5 -128q-129 0 -234.5 38t-172.5 106v114h6q63 -78 164.5 -120.5t228.5 -42.5q195 0 301.5 102.5t106.5 292.5v106h-4q-58 -95 -162 -148.5t-240 -53.5q-214 0 -351.5 138.5t-137.5 356.5
t137.5 357t351.5 139q141 0 247.5 -57t164.5 -160h4l2 196h92zM582 78q175 0 287 112t112 289q0 178 -112 290t-287 112q-173 0 -284.5 -112t-111.5 -290q0 -176 112 -288.5t284 -112.5z" />
    <glyph glyph-name="Hcircumflex" unicode="&#x124;" horiz-adv-x="1509" 
d="M1337 0h-112v641h-940v-641h-113v1360h113v-617h940v617h112v-1360zM754 1731l-191 -230h-102l248 309h88l247 -309h-102z" />
    <glyph glyph-name="hcircumflex" unicode="&#x125;" horiz-adv-x="1142" 
d="M616 975q189 0 298.5 -115t109.5 -313v-547h-104v537q0 162 -85 253t-237 91q-161 0 -254.5 -106.5t-93.5 -289.5v-485h-105v1434h105v-654h4q53 95 145 145t217 50zM197 1794l-191 -229h-102l248 309h88l247 -309h-102z" />
    <glyph glyph-name="Hbar" unicode="&#x126;" horiz-adv-x="1513" 
d="M1339 0h-112v641h-940v-641h-113v975h-125v94h125v291h113v-291h940v291h112v-291h127v-94h-127v-975zM287 743h940v232h-940v-232z" />
    <glyph glyph-name="hbar" unicode="&#x127;" horiz-adv-x="1150" 
d="M623 975q189 0 298 -115t109 -313v-547h-104v537q0 162 -85 253t-237 91q-161 0 -254.5 -106.5t-93.5 -289.5v-485h-104v1106h-148v90h148v238h104v-238h385v-90h-385v-326h4q53 95 145.5 145t217.5 50z" />
    <glyph glyph-name="Itilde" unicode="&#x128;" horiz-adv-x="456" 
d="M172 0v1360h113v-1360h-113zM532 1757v-104q-26 -48 -72 -75.5t-100 -27.5q-36 0 -68.5 13t-78.5 47q-69 51 -119 51q-99 0 -162 -121h-6v102q26 50 71.5 77.5t100.5 27.5q37 0 69.5 -12.5t78.5 -46.5q40 -29 65.5 -40.5t53.5 -11.5q98 0 161 121h6z" />
    <glyph glyph-name="itilde" unicode="&#x129;" horiz-adv-x="393" 
d="M145 0v954h105v-954h-105zM500 1368v-104q-26 -48 -72 -75.5t-100 -27.5q-68 0 -148 60q-69 51 -119 51q-98 0 -161 -121h-6v102q26 50 71.5 77.5t100.5 27.5q36 0 68.5 -13t78.5 -47q69 -51 119 -51q99 0 162 121h6z" />
    <glyph glyph-name="Imacron" unicode="&#x12a;" horiz-adv-x="456" 
d="M172 0v1360h113v-1360h-113zM-74 1602v81h606v-81h-606z" />
    <glyph glyph-name="imacron" unicode="&#x12b;" horiz-adv-x="393" 
d="M145 0v954h105v-954h-105zM-106 1212v82h606v-82h-606z" />
    <glyph glyph-name="Ibreve" unicode="&#x12c;" horiz-adv-x="456" 
d="M172 0v1360h113v-1360h-113zM453 1784h84q-19 -125 -98.5 -192.5t-209.5 -67.5t-209 67.5t-98 192.5h84q17 -85 74 -128.5t149 -43.5t149.5 43.5t74.5 128.5z" />
    <glyph glyph-name="ibreve" unicode="&#x12d;" horiz-adv-x="393" 
d="M145 0v954h105v-954h-105zM420 1395h84q-19 -125 -98 -192.5t-209 -67.5t-209.5 67.5t-98.5 192.5h84q17 -85 74.5 -128.5t149.5 -43.5t149 43.5t74 128.5z" />
    <glyph glyph-name="Iogonek" unicode="&#x12e;" horiz-adv-x="456" 
d="M344 -274v-93q-65 -43 -158 -43q-85 0 -133.5 44.5t-48.5 125.5q0 149 168 265v1335h113v-1360h-17q-180 -101 -180 -231q0 -44 31 -73.5t78 -29.5q75 0 141 60h6z" />
    <glyph glyph-name="iogonek" unicode="&#x12f;" horiz-adv-x="393" 
d="M299 -274v-93q-65 -43 -158 -43q-85 0 -133.5 44.5t-48.5 125.5q0 158 186 277v917h105v-954h-27q-180 -98 -180 -231q0 -44 31 -73.5t78 -29.5q75 0 141 60h6zM197 1335q32 0 53.5 -22.5t21.5 -55.5q0 -31 -21.5 -53t-53.5 -22t-54 22t-22 53q0 32 22 55t54 23z" />
    <glyph glyph-name="Idotaccent" unicode="&#x130;" horiz-adv-x="456" 
d="M172 0v1360h113v-1360h-113zM229 1726q32 0 55 -23.5t23 -55.5q0 -31 -23 -54.5t-55 -23.5t-54.5 23.5t-22.5 54.5q0 32 22.5 55.5t54.5 23.5z" />
    <glyph glyph-name="dotlessi" unicode="&#x131;" horiz-adv-x="393" 
d="M145 0v954h105v-954h-105z" />
    <glyph glyph-name="IJ" unicode="&#x132;" horiz-adv-x="1488" 
d="M172 0v1360h113v-1360h-113zM1352 1360v-924q0 -217 -118 -336.5t-333 -119.5q-241 0 -393 143v129h6q64 -82 163 -126t216 -44q166 0 256 94t90 268v916h113z" />
    <glyph glyph-name="ij" unicode="&#x133;" horiz-adv-x="786" 
d="M197 1335q32 0 53.5 -22.5t21.5 -55.5q0 -31 -21.5 -53t-53.5 -22t-54 22t-22 53q0 32 22 55t54 23zM145 0v954h105v-954h-105zM590 1335q32 0 54 -23t22 -55q0 -31 -22 -53t-54 -22t-54 22t-22 53q0 32 22 55t54 23zM643 954v-1124q0 -124 -49.5 -182t-151.5 -58
q-59 0 -108 21v98h6q36 -24 90 -24q60 0 84.5 33.5t24.5 117.5v1118h104z" />
    <glyph glyph-name="Jcircumflex" unicode="&#x134;" horiz-adv-x="1032" 
d="M895 1360v-924q0 -217 -118 -336.5t-333 -119.5q-241 0 -393 143v129h6q64 -82 163 -126t216 -44q166 0 256 94t90 268v916h113zM838 1731l-191 -230h-102l248 309h88l247 -309h-102z" />
    <glyph glyph-name="jcircumflex" unicode="&#x135;" horiz-adv-x="393" 
d="M250 954v-1124q0 -124 -49.5 -182t-151.5 -58q-59 0 -108 21v98h6q36 -24 90 -24q60 0 84 33t24 118v1118h105zM197 1341l-191 -229h-102l248 309h88l247 -309h-102z" />
    <glyph glyph-name="uni0136" unicode="&#x136;" horiz-adv-x="1255" 
d="M285 0h-113v1360h113v-643l745 643h162l-791 -672l811 -688h-168l-759 655v-655zM379 -430l223 295h117l-240 -295h-100z" />
    <glyph glyph-name="uni0137" unicode="&#x137;" horiz-adv-x="954" 
d="M250 449v-449h-105v1434h105v-914l502 434h149l-547 -469l568 -485h-154zM229 -430l224 295h116l-239 -295h-101z" />
    <glyph glyph-name="kgreenlandic" unicode="&#x138;" horiz-adv-x="954" 
d="M250 446v-446h-105v954h105v-432l502 432h149l-549 -469l570 -485h-154z" />
    <glyph glyph-name="Lacute" unicode="&#x139;" horiz-adv-x="1173" 
d="M1122 0h-950v1360h113v-1258h837v-102zM158 1501l237 309h121l-254 -309h-104z" />
    <glyph glyph-name="lacute" unicode="&#x13a;" horiz-adv-x="395" 
d="M145 0v1434h105v-1434h-105zM125 1565l237 309h121l-254 -309h-104z" />
    <glyph glyph-name="uni013B" unicode="&#x13b;" horiz-adv-x="1173" 
d="M1122 0h-950v1360h113v-1258h837v-102zM354 -430l224 295h116l-239 -295h-101z" />
    <glyph glyph-name="uni013C" unicode="&#x13c;" horiz-adv-x="395" 
d="M145 0v1434h105v-1434h-105zM-80 -430l223 295h117l-240 -295h-100z" />
    <glyph glyph-name="Lcaron" unicode="&#x13d;" horiz-adv-x="1173" 
d="M1122 0h-950v1360h113v-1258h837v-102zM481 1071l70 363h102l-90 -363h-82z" />
    <glyph glyph-name="lcaron" unicode="&#x13e;" horiz-adv-x="436" 
d="M145 0v1434h105v-1434h-105zM332 1071l69 363h103l-90 -363h-82z" />
    <glyph glyph-name="Ldot" unicode="&#x13f;" horiz-adv-x="1173" 
d="M1122 0h-950v1360h113v-1258h837v-102zM811 760q32 0 55 -24t23 -56q0 -31 -23 -54.5t-55 -23.5t-55 23.5t-23 54.5q0 32 23 56t55 24z" />
    <glyph glyph-name="ldot" unicode="&#x140;" horiz-adv-x="442" 
d="M145 0v1434h105v-1434h-105zM418 760q32 0 55 -24t23 -56q0 -31 -23 -54.5t-55 -23.5t-55 23.5t-23 54.5q0 32 23 56t55 24z" />
    <glyph glyph-name="Lslash" unicode="&#x141;" horiz-adv-x="1200" 
d="M199 0v457l-158 -95v113l158 94v791h112v-723l588 352v-112l-588 -353v-422h838v-102h-950z" />
    <glyph glyph-name="lslash" unicode="&#x142;" horiz-adv-x="442" 
d="M258 711v-711h-104v635l-148 -107v111l148 106v689h104v-613l180 131v-110z" />
    <glyph glyph-name="Nacute" unicode="&#x143;" horiz-adv-x="1517" 
d="M1346 0h-140l-919 1243h-4v-1243h-111v1360h160l899 -1213h4v1213h111v-1360zM688 1501l238 309h121l-254 -309h-105z" />
    <glyph glyph-name="nacute" unicode="&#x144;" horiz-adv-x="1142" 
d="M616 975q189 0 298.5 -115t109.5 -313v-547h-104v537q0 162 -85 253t-237 91q-161 0 -254.5 -106.5t-93.5 -289.5v-485h-105v954h91l2 -196h4q52 104 147 160.5t227 56.5zM500 1112l237 309h121l-254 -309h-104z" />
    <glyph glyph-name="uni0145" unicode="&#x145;" horiz-adv-x="1517" 
d="M1346 0h-140l-919 1243h-4v-1243h-111v1360h160l899 -1213h4v1213h111v-1360zM483 -430l224 295h116l-239 -295h-101z" />
    <glyph glyph-name="uni0146" unicode="&#x146;" horiz-adv-x="1142" 
d="M616 975q189 0 298.5 -115t109.5 -313v-547h-104v537q0 162 -85 253t-237 91q-161 0 -254.5 -106.5t-93.5 -289.5v-485h-105v954h91l2 -196h4q52 104 147 160.5t227 56.5zM307 -430l223 295h117l-239 -295h-101z" />
    <glyph glyph-name="Ncaron" unicode="&#x147;" horiz-adv-x="1517" 
d="M1346 0h-140l-919 1243h-4v-1243h-111v1360h160l899 -1213h4v1213h111v-1360zM803 1501h-88l-248 309h102l191 -227l188 227h103z" />
    <glyph glyph-name="ncaron" unicode="&#x148;" horiz-adv-x="1142" 
d="M616 975q189 0 298.5 -115t109.5 -313v-547h-104v537q0 162 -85 253t-237 91q-161 0 -254.5 -106.5t-93.5 -289.5v-485h-105v954h91l2 -196h4q52 104 147 160.5t227 56.5zM614 1112h-88l-247 309h102l190 -227l189 227h102z" />
    <glyph glyph-name="napostrophe" unicode="&#x149;" horiz-adv-x="1142" 
d="M57 1434h99q0 -207 -64 -338h-84q51 127 51 288q0 34 -2 50zM616 975q189 0 298.5 -115t109.5 -313v-547h-104v537q0 162 -85 253t-237 91q-161 0 -254.5 -106.5t-93.5 -289.5v-485h-105v954h91l2 -196h4q52 104 147 160.5t227 56.5z" />
    <glyph glyph-name="Eng" unicode="&#x14a;" horiz-adv-x="1517" 
d="M1346 1360v-1530q0 -123 -50.5 -181.5t-152.5 -58.5q-61 0 -111 21v106h6q36 -24 88 -24q60 0 84.5 32.5t24.5 110.5v164l-948 1249h-4v-1249h-111v1360h162l897 -1182h4v1182h111z" />
    <glyph glyph-name="eng" unicode="&#x14b;" horiz-adv-x="1142" 
d="M616 975q189 0 298.5 -115t109.5 -313v-717q0 -124 -49.5 -182t-151.5 -58q-59 0 -108 21v98h6q36 -24 90 -24q60 0 84.5 33.5t24.5 117.5v701q0 162 -85 253t-237 91q-161 0 -254.5 -106.5t-93.5 -289.5v-485h-105v954h91l2 -192h4q52 103 147 158t227 55z" />
    <glyph glyph-name="Omacron" unicode="&#x14c;" horiz-adv-x="1568" 
d="M784 1380q204 0 364.5 -89t250.5 -249t90 -362t-90 -362t-250.5 -249t-364.5 -89t-364.5 89t-250 248.5t-89.5 362.5t89.5 362.5t250 248.5t364.5 89zM784 1278q-259 0 -424 -167.5t-165 -430.5t165 -430.5t424 -167.5t424.5 167.5t165.5 430.5t-165.5 430.5
t-424.5 167.5zM481 1602v81h606v-81h-606z" />
    <glyph glyph-name="omacron" unicode="&#x14d;" horiz-adv-x="1165" 
d="M582 975q221 0 362 -140t141 -358q0 -219 -140.5 -358t-362.5 -139q-220 0 -361 139t-141 358q0 218 141 358t361 140zM582 881q-173 0 -284.5 -113t-111.5 -291t111.5 -290.5t284.5 -112.5q174 0 285.5 112.5t111.5 290.5t-111.5 291t-285.5 113zM279 1212v82h606v-82
h-606z" />
    <glyph glyph-name="Obreve" unicode="&#x14e;" horiz-adv-x="1568" 
d="M784 1380q204 0 364.5 -89t250.5 -249t90 -362t-90 -362t-250.5 -249t-364.5 -89t-364.5 89t-250 248.5t-89.5 362.5t89.5 362.5t250 248.5t364.5 89zM784 1278q-259 0 -424 -167.5t-165 -430.5t165 -430.5t424 -167.5t424.5 167.5t165.5 430.5t-165.5 430.5
t-424.5 167.5zM1008 1784h84q-19 -125 -98.5 -192.5t-209.5 -67.5t-209 67.5t-98 192.5h84q17 -85 74 -128.5t149 -43.5t149.5 43.5t74.5 128.5z" />
    <glyph glyph-name="obreve" unicode="&#x14f;" horiz-adv-x="1165" 
d="M582 975q221 0 362 -140t141 -358q0 -219 -140.5 -358t-362.5 -139q-220 0 -361 139t-141 358q0 218 141 358t361 140zM582 881q-173 0 -284.5 -113t-111.5 -291t111.5 -290.5t284.5 -112.5q174 0 285.5 112.5t111.5 290.5t-111.5 291t-285.5 113zM805 1395h84
q-19 -125 -98 -192.5t-209 -67.5t-209.5 67.5t-98.5 192.5h84q17 -85 74.5 -128.5t149.5 -43.5t149 43.5t74 128.5z" />
    <glyph glyph-name="Ohungarumlaut" unicode="&#x150;" horiz-adv-x="1568" 
d="M784 1380q204 0 364.5 -89t250.5 -249t90 -362t-90 -362t-250.5 -249t-364.5 -89t-364.5 89t-250 248.5t-89.5 362.5t89.5 362.5t250 248.5t364.5 89zM784 1278q-259 0 -424 -167.5t-165 -430.5t165 -430.5t424 -167.5t424.5 167.5t165.5 430.5t-165.5 430.5
t-424.5 167.5zM547 1501l233 309h117l-250 -309h-100zM883 1501l233 309h117l-250 -309h-100z" />
    <glyph glyph-name="ohungarumlaut" unicode="&#x151;" horiz-adv-x="1165" 
d="M582 975q221 0 362 -140t141 -358q0 -219 -140.5 -358t-362.5 -139q-220 0 -361 139t-141 358q0 218 141 358t361 140zM582 881q-173 0 -284.5 -113t-111.5 -291t111.5 -290.5t284.5 -112.5q174 0 285.5 112.5t111.5 290.5t-111.5 291t-285.5 113zM344 1112l234 309h116
l-250 -309h-100zM680 1112l233 309h117l-250 -309h-100z" />
    <glyph glyph-name="OE" unicode="&#x152;" horiz-adv-x="2283" 
d="M2034 639h-719v-537h866v-102h-1380q-337 0 -529 182t-192 500q0 315 192.5 496.5t528.5 181.5h1380v-103h-866v-516h719v-102zM1202 1257h-397q-286 0 -448 -153t-162 -422q0 -270 162.5 -425t447.5 -155h397v1155z" />
    <glyph glyph-name="oe" unicode="&#x153;" horiz-adv-x="2041" 
d="M1962 451h-877q9 -174 128 -275.5t315 -101.5q217 0 364 141h6v-111q-140 -124 -370 -124q-186 0 -313.5 74t-180.5 210h-4q-53 -132 -173 -208t-282 -76q-217 0 -356 139t-139 358q0 218 139 358t356 140q162 0 282 -76.5t173 -210.5h4q53 134 171 210.5t280 76.5
q219 0 348 -125t129 -336v-63zM582 74q175 0 287 112.5t112 290.5t-112 291t-287 113q-173 0 -284.5 -113t-111.5 -291t111.5 -290.5t284.5 -112.5zM1085 541h781q-9 154 -114.5 247t-272.5 93q-160 0 -267 -94t-127 -246z" />
    <glyph glyph-name="Racute" unicode="&#x154;" horiz-adv-x="1339" 
d="M285 0h-113v1360h586q230 0 347.5 -102t117.5 -302q0 -343 -346 -393l387 -563h-138l-370 555h-471v-555zM285 657h469q354 0 354 299q0 301 -354 301h-469v-600zM578 1501l237 309h121l-254 -309h-104z" />
    <glyph glyph-name="racute" unicode="&#x155;" horiz-adv-x="727" 
d="M557 975q83 0 148 -37v-109h-7q-65 45 -149 45q-149 0 -224 -106.5t-75 -312.5v-455h-105v954h91l2 -182h4q87 203 315 203zM305 1112l238 309h121l-254 -309h-105z" />
    <glyph glyph-name="uni0156" unicode="&#x156;" horiz-adv-x="1339" 
d="M285 0h-113v1360h586q230 0 347.5 -102t117.5 -302q0 -343 -346 -393l387 -563h-138l-370 555h-471v-555zM285 657h469q354 0 354 299q0 301 -354 301h-469v-600zM420 -430l223 295h117l-240 -295h-100z" />
    <glyph glyph-name="uni0157" unicode="&#x157;" horiz-adv-x="727" 
d="M557 975q83 0 148 -37v-109h-7q-65 45 -149 45q-149 0 -224 -106.5t-75 -312.5v-455h-105v954h91l2 -182h4q87 203 315 203zM-80 -430l223 295h117l-240 -295h-100z" />
    <glyph glyph-name="Rcaron" unicode="&#x158;" horiz-adv-x="1339" 
d="M285 0h-113v1360h586q230 0 347.5 -102t117.5 -302q0 -343 -346 -393l387 -563h-138l-370 555h-471v-555zM285 657h469q354 0 354 299q0 301 -354 301h-469v-600zM692 1501h-88l-248 309h103l190 -227l189 227h102z" />
    <glyph glyph-name="rcaron" unicode="&#x159;" horiz-adv-x="727" 
d="M557 975q83 0 148 -37v-109h-7q-65 45 -149 45q-149 0 -224 -106.5t-75 -312.5v-455h-105v954h91l2 -182h4q87 203 315 203zM420 1112h-88l-248 309h102l191 -227l188 227h103z" />
    <glyph glyph-name="Sacute" unicode="&#x15a;" horiz-adv-x="1175" 
d="M588 1380q144 0 261 -33.5t185 -93.5v-133h-6q-66 75 -181.5 116.5t-258.5 41.5q-166 0 -270.5 -79.5t-104.5 -205.5q0 -114 84.5 -169t304.5 -76q274 -26 386 -112.5t112 -268.5q0 -180 -135 -283.5t-367 -103.5q-162 0 -296 39.5t-220 113.5v133h6q181 -184 512 -184
q181 0 284 75.5t103 209.5q0 125 -89 185.5t-320 84.5q-264 28 -371 107.5t-107 246.5q0 175 134 282t354 107zM514 1501l238 309h120l-254 -309h-104z" />
    <glyph glyph-name="sacute" unicode="&#x15b;" horiz-adv-x="876" 
d="M440 975q98 0 182.5 -22t135.5 -60v-115h-6q-100 103 -310 103q-109 0 -180.5 -55t-71.5 -140q0 -74 57.5 -108t203.5 -41q196 -10 277 -73t81 -198q0 -131 -98.5 -208.5t-264.5 -77.5q-241 0 -364 108v121h6q117 -135 356 -135q120 0 192.5 52t72.5 140q0 83 -60.5 120
t-216.5 46q-189 10 -266.5 69t-77.5 183q0 129 97.5 210t254.5 81zM365 1112l237 309h121l-254 -309h-104z" />
    <glyph glyph-name="Scircumflex" unicode="&#x15c;" horiz-adv-x="1175" 
d="M588 1380q144 0 261 -33.5t185 -93.5v-133h-6q-66 75 -181.5 116.5t-258.5 41.5q-166 0 -270.5 -79.5t-104.5 -205.5q0 -114 84.5 -169t304.5 -76q274 -26 386 -112.5t112 -268.5q0 -180 -135 -283.5t-367 -103.5q-162 0 -296 39.5t-220 113.5v133h6q181 -184 512 -184
q181 0 284 75.5t103 209.5q0 125 -89 185.5t-320 84.5q-264 28 -371 107.5t-107 246.5q0 175 134 282t354 107zM586 1731l-191 -230h-102l248 309h88l248 -309h-103z" />
    <glyph glyph-name="scircumflex" unicode="&#x15d;" horiz-adv-x="876" 
d="M440 975q98 0 182.5 -22t135.5 -60v-115h-6q-100 103 -310 103q-109 0 -180.5 -55t-71.5 -140q0 -74 57.5 -108t203.5 -41q196 -10 277 -73t81 -198q0 -131 -98.5 -208.5t-264.5 -77.5q-241 0 -364 108v121h6q117 -135 356 -135q120 0 192.5 52t72.5 140q0 83 -60.5 120
t-216.5 46q-189 10 -266.5 69t-77.5 183q0 129 97.5 210t254.5 81zM436 1341l-190 -229h-103l248 309h88l248 -309h-102z" />
    <glyph glyph-name="Scedilla" unicode="&#x15e;" horiz-adv-x="1175" 
d="M82 133v133h6q181 -184 512 -184q181 0 284 75.5t103 209.5q0 125 -89 185.5t-320 84.5q-264 28 -371 107.5t-107 246.5q0 175 134 282t354 107q144 0 261 -33.5t185 -93.5v-133h-6q-66 75 -181.5 116.5t-258.5 41.5q-166 0 -270.5 -79.5t-104.5 -205.5q0 -114 84.5 -169
t304.5 -76q274 -26 386 -112.5t112 -268.5q0 -171 -122.5 -273.5t-334.5 -111.5l-51 -107v-4q10 2 24 2q76 0 117 -38.5t41 -100.5q0 -144 -192 -144q-100 0 -160 37v86h6q64 -47 154 -47q55 0 81.5 20t26.5 50q0 71 -108 71q-43 0 -95 -18v21l84 170q-153 3 -279 42.5
t-210 110.5z" />
    <glyph glyph-name="scedilla" unicode="&#x15f;" horiz-adv-x="876" 
d="M82 88v121h6q117 -135 356 -135q120 0 192.5 52t72.5 140q0 83 -60.5 120t-216.5 46q-189 10 -266.5 69t-77.5 183q0 129 97.5 210t254.5 81q98 0 182.5 -22t135.5 -60v-115h-6q-100 103 -310 103q-109 0 -180.5 -55t-71.5 -140q0 -74 57.5 -108t203.5 -41
q196 -10 277 -73t81 -198q0 -119 -82.5 -194.5t-224.5 -89.5l-53 -107v-4q10 2 24 2q76 0 117 -38.5t41 -100.5q0 -144 -193 -144q-99 0 -159 37v86h6q64 -47 153 -47q55 0 82 20t27 50q0 71 -109 71q-42 0 -94 -18v21l84 170q-225 3 -346 108z" />
    <glyph glyph-name="Scaron" unicode="&#x160;" horiz-adv-x="1175" 
d="M588 1380q144 0 261 -33.5t185 -93.5v-133h-6q-66 75 -181.5 116.5t-258.5 41.5q-166 0 -270.5 -79.5t-104.5 -205.5q0 -114 84.5 -169t304.5 -76q274 -26 386 -112.5t112 -268.5q0 -180 -135 -283.5t-367 -103.5q-162 0 -296 39.5t-220 113.5v133h6q181 -184 512 -184
q181 0 284 75.5t103 209.5q0 125 -89 185.5t-320 84.5q-264 28 -371 107.5t-107 246.5q0 175 134 282t354 107zM629 1501h-88l-248 309h102l191 -227l188 227h103z" />
    <glyph glyph-name="scaron" unicode="&#x161;" horiz-adv-x="876" 
d="M440 975q98 0 182.5 -22t135.5 -60v-115h-6q-100 103 -310 103q-109 0 -180.5 -55t-71.5 -140q0 -74 57.5 -108t203.5 -41q196 -10 277 -73t81 -198q0 -131 -98.5 -208.5t-264.5 -77.5q-241 0 -364 108v121h6q117 -135 356 -135q120 0 192.5 52t72.5 140q0 83 -60.5 120
t-216.5 46q-189 10 -266.5 69t-77.5 183q0 129 97.5 210t254.5 81zM479 1112h-88l-248 309h103l190 -227l189 227h102z" />
    <glyph glyph-name="uni0162" unicode="&#x162;" horiz-adv-x="1177" 
d="M578 -125v-4q14 2 28 2q76 0 117 -38.5t41 -100.5q0 -144 -193 -144q-99 0 -159 37v86h6q64 -47 153 -47q55 0 82 20t27 50q0 71 -109 71q-42 0 -94 -18v21l80 190h-22v1257h-484v103h1073v-103h-477v-1257h-18z" />
    <glyph glyph-name="uni0163" unicode="&#x163;" horiz-adv-x="729" 
d="M389 -125v-4q10 2 25 2q76 0 116.5 -38.5t40.5 -100.5q0 -144 -192 -144q-100 0 -160 37v86h6q64 -47 154 -47q55 0 81.5 20t26.5 50q0 71 -108 71q-42 0 -94 -18v21l94 188q-82 29 -125 103t-43 184v577h-188v92h190l20 254h82v-254h334v-92h-334v-575q0 -100 50 -156.5
t139 -56.5q93 0 143 53h6v-111q-61 -36 -161 -36q-18 0 -50 4z" />
    <glyph glyph-name="Tcaron" unicode="&#x164;" horiz-adv-x="1177" 
d="M647 0h-112v1257h-484v103h1073v-103h-477v-1257zM631 1501h-88l-248 309h102l191 -227l188 227h103z" />
    <glyph glyph-name="tcaron" unicode="&#x165;" horiz-adv-x="729" 
d="M653 127v-111q-61 -36 -161 -36q-133 0 -207 80t-74 225v577h-188v92h190l20 254h82v-254h334v-92h-334v-575q0 -100 50 -156.5t139 -56.5q93 0 143 53h6zM510 1071l70 363h102l-90 -363h-82z" />
    <glyph glyph-name="Tbar" unicode="&#x166;" horiz-adv-x="1177" 
d="M940 768v-94h-293v-674h-112v674h-297v94h297v489h-484v103h1073v-103h-477v-489h293z" />
    <glyph glyph-name="tbar" unicode="&#x167;" horiz-adv-x="751" 
d="M655 127v-111q-61 -36 -161 -36q-133 0 -207 80t-74 225v227h-168v90h168v260h-188v92h190l21 254h81v-254h334v-92h-334v-260h293v-90h-293v-225q0 -100 50 -156.5t139 -56.5q93 0 143 53h6z" />
    <glyph glyph-name="Utilde" unicode="&#x168;" horiz-adv-x="1425" 
d="M1288 1360v-791q0 -287 -147.5 -438t-427.5 -151q-281 0 -428.5 151t-147.5 438v791h113v-787q0 -238 119.5 -364.5t345.5 -126.5q224 0 343.5 126.5t119.5 364.5v787h110zM1016 1757v-104q-26 -48 -72 -75.5t-100 -27.5q-68 0 -148 60q-69 51 -118 51q-99 0 -162 -121
h-6v102q26 50 71.5 77.5t100.5 27.5q37 0 69 -12.5t78 -46.5q40 -29 65.5 -40.5t53.5 -11.5q99 0 162 121h6z" />
    <glyph glyph-name="utilde" unicode="&#x169;" horiz-adv-x="1142" 
d="M997 0h-92l-2 193h-4q-51 -103 -146.5 -158t-226.5 -55q-189 0 -297 114t-108 314v546h104v-536q0 -161 85.5 -252.5t234.5 -91.5q160 0 254 106t94 287v487h104v-954zM862 1368v-104q-26 -48 -72 -75.5t-100 -27.5q-36 0 -68.5 13t-78.5 47q-69 51 -119 51
q-99 0 -162 -121h-6v102q26 50 71.5 77.5t100.5 27.5q36 0 68.5 -13t78.5 -47q69 -51 119 -51q99 0 162 121h6z" />
    <glyph glyph-name="Umacron" unicode="&#x16a;" horiz-adv-x="1425" 
d="M1288 1360v-791q0 -287 -147.5 -438t-427.5 -151q-281 0 -428.5 151t-147.5 438v791h113v-787q0 -238 119.5 -364.5t345.5 -126.5q224 0 343.5 126.5t119.5 364.5v787h110zM410 1602v81h606v-81h-606z" />
    <glyph glyph-name="umacron" unicode="&#x16b;" horiz-adv-x="1142" 
d="M997 0h-92l-2 193h-4q-51 -103 -146.5 -158t-226.5 -55q-189 0 -297 114t-108 314v546h104v-536q0 -161 85.5 -252.5t234.5 -91.5q160 0 254 106t94 287v487h104v-954zM256 1212v82h606v-82h-606z" />
    <glyph glyph-name="Ubreve" unicode="&#x16c;" horiz-adv-x="1425" 
d="M1288 1360v-791q0 -287 -147.5 -438t-427.5 -151q-281 0 -428.5 151t-147.5 438v791h113v-787q0 -238 119.5 -364.5t345.5 -126.5q224 0 343.5 126.5t119.5 364.5v787h110zM936 1784h84q-19 -125 -98 -192.5t-209 -67.5t-209 67.5t-98 192.5h83q17 -85 74.5 -128.5
t149.5 -43.5t149 43.5t74 128.5z" />
    <glyph glyph-name="ubreve" unicode="&#x16d;" horiz-adv-x="1142" 
d="M997 0h-92l-2 193h-4q-51 -103 -146.5 -158t-226.5 -55q-189 0 -297 114t-108 314v546h104v-536q0 -161 85.5 -252.5t234.5 -91.5q160 0 254 106t94 287v487h104v-954zM782 1395h84q-19 -125 -98 -192.5t-209 -67.5t-209 67.5t-98 192.5h84q17 -85 74 -128.5t149 -43.5
t149 43.5t74 128.5z" />
    <glyph glyph-name="Uring" unicode="&#x16e;" horiz-adv-x="1425" 
d="M1288 1360v-791q0 -287 -147.5 -438t-427.5 -151q-281 0 -428.5 151t-147.5 438v791h113v-787q0 -238 119.5 -364.5t345.5 -126.5q224 0 343.5 126.5t119.5 364.5v787h110zM713 1831q73 0 122.5 -49.5t49.5 -122.5t-49.5 -122.5t-122.5 -49.5t-122.5 49.5t-49.5 122.5
t49.5 122.5t122.5 49.5zM713 1749q-38 0 -63 -26t-25 -64t25 -64t63 -26t63 26t25 64t-25 64t-63 26z" />
    <glyph glyph-name="uring" unicode="&#x16f;" horiz-adv-x="1142" 
d="M997 0h-92l-2 193h-4q-51 -103 -146.5 -158t-226.5 -55q-189 0 -297 114t-108 314v546h104v-536q0 -161 85.5 -252.5t234.5 -91.5q160 0 254 106t94 287v487h104v-954zM559 1442q73 0 122.5 -49t49.5 -123t-49.5 -123t-122.5 -49t-122.5 49t-49.5 123t49.5 123t122.5 49z
M559 1360q-38 0 -63 -26t-25 -64t25 -64t63 -26t63 26t25 64t-25 64t-63 26z" />
    <glyph glyph-name="Uhungarumlaut" unicode="&#x170;" horiz-adv-x="1425" 
d="M1288 1360v-791q0 -287 -147.5 -438t-427.5 -151q-281 0 -428.5 151t-147.5 438v791h113v-787q0 -238 119.5 -364.5t345.5 -126.5q224 0 343.5 126.5t119.5 364.5v787h110zM475 1501l234 309h116l-250 -309h-100zM811 1501l233 309h117l-250 -309h-100z" />
    <glyph glyph-name="uhungarumlaut" unicode="&#x171;" horiz-adv-x="1142" 
d="M997 0h-92l-2 193h-4q-51 -103 -146.5 -158t-226.5 -55q-189 0 -297 114t-108 314v546h104v-536q0 -161 85.5 -252.5t234.5 -91.5q160 0 254 106t94 287v487h104v-954zM322 1112l233 309h117l-250 -309h-100zM657 1112l234 309h117l-250 -309h-101z" />
    <glyph glyph-name="Uogonek" unicode="&#x172;" horiz-adv-x="1425" 
d="M1288 1360v-791q0 -373 -254 -520q-219 -124 -219 -272q0 -46 31.5 -78.5t81.5 -32.5q75 0 141 60h6v-93q-65 -43 -157 -43q-84 0 -135.5 49t-51.5 130q0 121 92 213v4q-53 -6 -110 -6q-281 0 -428.5 151t-147.5 438v791h113v-787q0 -238 119.5 -364.5t345.5 -126.5
q224 0 343.5 126.5t119.5 364.5v787h110z" />
    <glyph glyph-name="uogonek" unicode="&#x173;" horiz-adv-x="1142" 
d="M997 0h-41q-102 -45 -158.5 -104.5t-56.5 -126.5q0 -44 31 -73.5t78 -29.5q75 0 141 60h6v-93q-65 -43 -157 -43q-85 0 -134 44.5t-49 123.5q0 88 63.5 164t184.5 131l-2 140h-4q-51 -103 -146.5 -158t-226.5 -55q-189 0 -297 114t-108 314v546h104v-536
q0 -161 85.5 -252.5t234.5 -91.5q160 0 254 106t94 287v487h104v-954z" />
    <glyph glyph-name="Wcircumflex" unicode="&#x174;" horiz-adv-x="2048" 
d="M1538 0h-113l-399 1163h-4l-399 -1163h-113l-461 1360h121l395 -1182h4l406 1182h100l406 -1186h4l397 1186h117zM1026 1731l-190 -230h-103l248 309h88l248 -309h-103z" />
    <glyph glyph-name="wcircumflex" unicode="&#x175;" horiz-adv-x="1533" 
d="M1163 0h-100l-293 791h-4l-293 -791h-102l-351 954h111l291 -817h4l301 817h86l301 -817h4l291 817h104zM766 1341l-191 -229h-102l248 309h88l248 -309h-103z" />
    <glyph glyph-name="Ycircumflex" unicode="&#x176;" horiz-adv-x="1341" 
d="M731 0h-113v610l-595 750h143l508 -651l508 651h137l-588 -744v-616zM670 1731l-191 -230h-102l248 309h88l248 -309h-103z" />
    <glyph glyph-name="ycircumflex" unicode="&#x177;" horiz-adv-x="1001" 
d="M348 -389h-108l204 426l-424 917h113l369 -800h4l366 800h109zM500 1341l-191 -229h-102l248 309h88l248 -309h-103z" />
    <glyph glyph-name="Ydieresis" unicode="&#x178;" horiz-adv-x="1341" 
d="M731 0h-113v610l-595 750h143l508 -651l508 651h137l-588 -744v-616zM479 1722q33 0 54.5 -22t21.5 -53q0 -30 -21.5 -52t-54.5 -22q-30 0 -51.5 22t-21.5 52q0 31 21 53t52 22zM860 1722q31 0 52.5 -22t21.5 -53q0 -30 -22 -52t-52 -22q-33 0 -54.5 22t-21.5 52
q0 31 21.5 53t54.5 22z" />
    <glyph glyph-name="Zacute" unicode="&#x179;" horiz-adv-x="1294" 
d="M1196 0h-1098v96l938 1161h-897v103h1047v-96l-938 -1162h948v-102zM586 1501l237 309h121l-254 -309h-104z" />
    <glyph glyph-name="zacute" unicode="&#x17a;" horiz-adv-x="995" 
d="M86 0v86l674 776h-643v92h782v-86l-674 -776h684v-92h-823zM432 1112l238 309h121l-254 -309h-105z" />
    <glyph glyph-name="Zdotaccent" unicode="&#x17b;" horiz-adv-x="1294" 
d="M1196 0h-1098v96l938 1161h-897v103h1047v-96l-938 -1162h948v-102zM657 1726q32 0 55 -23.5t23 -55.5q0 -31 -23 -54.5t-55 -23.5t-54.5 23.5t-22.5 54.5q0 32 22.5 55.5t54.5 23.5z" />
    <glyph glyph-name="zdotaccent" unicode="&#x17c;" horiz-adv-x="995" 
d="M86 0v86l674 776h-643v92h782v-86l-674 -776h684v-92h-823zM504 1337q32 0 55 -24t23 -56q0 -31 -23 -54t-55 -23t-55 23t-23 54q0 32 23 56t55 24z" />
    <glyph glyph-name="Zcaron" unicode="&#x17d;" horiz-adv-x="1294" 
d="M1196 0h-1098v96l938 1161h-897v103h1047v-96l-938 -1162h948v-102zM700 1501h-88l-247 309h102l190 -227l189 227h102z" />
    <glyph glyph-name="zcaron" unicode="&#x17e;" horiz-adv-x="995" 
d="M86 0v86l674 776h-643v92h782v-86l-674 -776h684v-92h-823zM547 1112h-88l-248 309h102l191 -227l188 227h103z" />
    <glyph glyph-name="florin" unicode="&#x192;" horiz-adv-x="1331" 
d="M979 1380q115 0 176 -39l-8 -100h-6q-51 45 -152 45q-203 0 -233 -223l-31 -211h344v-92h-356l-84 -594q-44 -309 -307 -309q-116 0 -177 39l9 100h6q51 -45 151 -45q184 0 213 223l82 586h-309v92h324l30 219q22 150 106.5 229.5t221.5 79.5z" />
    <glyph glyph-name="AEacute" unicode="&#x1fc;" horiz-adv-x="2117" 
d="M1151 741h717v-102h-717v-537h864v-102h-977v328h-653l-231 -328h-131l970 1360h1022v-103h-864v-516zM1038 1245h-4l-575 -815h579v815zM997 1501l238 309h121l-254 -309h-105z" />
    <glyph glyph-name="aeacute" unicode="&#x1fd;" horiz-adv-x="2039" 
d="M1960 451h-881q9 -174 128.5 -275.5t316.5 -101.5q219 0 366 141h6v-111q-140 -124 -362 -124q-167 0 -283.5 57t-175.5 158h-4l-2 -195h-84l-2 195h-4q-56 -101 -162.5 -158t-247.5 -57q-214 0 -351.5 139.5t-137.5 357.5t137.5 358t351.5 140q141 0 247.5 -57
t162.5 -158h4l2 194h84l2 -194h4q57 101 164 158t252 57q216 0 342.5 -125t126.5 -336v-63zM582 74q175 0 287 112.5t112 290.5t-112 291t-287 113q-173 0 -284.5 -113t-111.5 -291t111.5 -290.5t284.5 -112.5zM1079 541h785q-9 154 -115 247t-274 93q-162 0 -268.5 -93.5
t-127.5 -246.5zM956 1112l238 309h121l-254 -309h-105z" />
    <glyph glyph-name="Oslashacute" unicode="&#x1fe;" horiz-adv-x="1568" 
d="M1489 1360l-182 -193q182 -195 182 -487q0 -202 -90 -362t-250.5 -249t-364.5 -89q-263 0 -452 147l-119 -127h-133l182 193q-182 195 -182 487q0 203 89.5 362.5t250 248.5t364.5 89q264 0 453 -147l119 127h133zM195 680q0 -247 143 -406l823 879q-153 125 -377 125
q-259 0 -424 -167.5t-165 -430.5zM1374 680q0 246 -143 405l-823 -878q153 -125 376 -125q259 0 424.5 167.5t165.5 430.5zM709 1501l237 309h121l-254 -309h-104z" />
    <glyph glyph-name="oslashacute" unicode="&#x1ff;" horiz-adv-x="1165" 
d="M1085 954l-124 -135q124 -140 124 -342q0 -219 -140.5 -358t-362.5 -139q-178 0 -310 96l-69 -76h-123l125 135q-125 134 -125 342q0 218 141 358t361 140q179 0 311 -96l70 75h122zM186 477q0 -154 88 -266l551 594q-105 76 -243 76q-173 0 -284.5 -113t-111.5 -291z
M979 477q0 155 -90 266l-549 -593q102 -76 242 -76q174 0 285.5 112.5t111.5 290.5zM530 1112l238 309h121l-254 -309h-105z" />
    <glyph glyph-name="uni0218" unicode="&#x218;" horiz-adv-x="1175" 
d="M588 1380q144 0 261 -33.5t185 -93.5v-133h-6q-66 75 -181.5 116.5t-258.5 41.5q-166 0 -270.5 -79.5t-104.5 -205.5q0 -114 84.5 -169t304.5 -76q274 -26 386 -112.5t112 -268.5q0 -180 -135 -283.5t-367 -103.5q-162 0 -296 39.5t-220 113.5v133h6q181 -184 512 -184
q181 0 284 75.5t103 209.5q0 125 -89 185.5t-320 84.5q-264 28 -371 107.5t-107 246.5q0 175 134 282t354 107zM322 -430l223 295h117l-240 -295h-100z" />
    <glyph glyph-name="uni0219" unicode="&#x219;" horiz-adv-x="876" 
d="M440 975q98 0 182.5 -22t135.5 -60v-115h-6q-100 103 -310 103q-109 0 -180.5 -55t-71.5 -140q0 -74 57.5 -108t203.5 -41q196 -10 277 -73t81 -198q0 -131 -98.5 -208.5t-264.5 -77.5q-241 0 -364 108v121h6q117 -135 356 -135q120 0 192.5 52t72.5 140q0 83 -60.5 120
t-216.5 46q-189 10 -266.5 69t-77.5 183q0 129 97.5 210t254.5 81zM178 -430l223 295h117l-239 -295h-101z" />
    <glyph glyph-name="uni021A" unicode="&#x21a;" horiz-adv-x="1177" 
d="M647 0h-112v1257h-484v103h1073v-103h-477v-1257zM311 -430l224 295h116l-239 -295h-101z" />
    <glyph glyph-name="uni021B" unicode="&#x21b;" horiz-adv-x="729" 
d="M653 127v-111q-61 -36 -161 -36q-133 0 -207 80t-74 225v577h-188v92h190l20 254h82v-254h334v-92h-334v-575q0 -100 50 -156.5t139 -56.5q93 0 143 53h6zM119 -430l223 295h117l-240 -295h-100z" />
    <glyph glyph-name="uni0237" unicode="&#x237;" horiz-adv-x="393" 
d="M250 954v-1124q0 -124 -49.5 -182t-151.5 -58q-59 0 -108 21v98h6q36 -24 90 -24q60 0 84 33t24 118v1118h105z" />
    <glyph glyph-name="circumflex" unicode="&#x2c6;" horiz-adv-x="1024" 
d="M514 1341l-190 -229h-103l248 309h88l248 -309h-103z" />
    <glyph glyph-name="caron" unicode="&#x2c7;" horiz-adv-x="1024" 
d="M557 1112h-88l-248 309h103l190 -227l188 227h103z" />
    <glyph glyph-name="breve" unicode="&#x2d8;" horiz-adv-x="1024" 
d="M735 1395h84q-19 -125 -98 -192.5t-209 -67.5t-209 67.5t-98 192.5h84q17 -85 74 -128.5t149 -43.5t149 43.5t74 128.5z" />
    <glyph glyph-name="dotaccent" unicode="&#x2d9;" horiz-adv-x="1024" 
d="M512 1337q32 0 55 -24t23 -56q0 -31 -23 -54t-55 -23t-55 23t-23 54q0 32 23 56t55 24z" />
    <glyph glyph-name="ring" unicode="&#x2da;" horiz-adv-x="1024" 
d="M512 1442q74 0 123 -49t49 -123t-49 -123t-123 -49t-123 49t-49 123t49 123t123 49zM512 1360q-38 0 -63 -26t-25 -64t25 -64t63 -26t63 26t25 64t-25 64t-63 26z" />
    <glyph glyph-name="ogonek" unicode="&#x2db;" horiz-adv-x="1024" 
d="M668 66l26 -64q-104 -45 -161.5 -105t-57.5 -128q0 -44 31 -73.5t78 -29.5q75 0 141 60h6v-93q-65 -43 -158 -43q-85 0 -133.5 44.5t-48.5 123.5q0 93 71.5 173t205.5 135z" />
    <glyph glyph-name="tilde" unicode="&#x2dc;" horiz-adv-x="1024" 
d="M815 1368v-104q-26 -48 -72 -75.5t-100 -27.5q-36 0 -68.5 13t-78.5 47q-69 51 -119 51q-99 0 -162 -121h-6v102q26 50 71.5 77.5t100.5 27.5q36 0 68.5 -13t78.5 -47q69 -51 119 -51q99 0 162 121h6z" />
    <glyph glyph-name="hungarumlaut" unicode="&#x2dd;" horiz-adv-x="1024" 
d="M272 1112l234 309h117l-250 -309h-101zM608 1112l234 309h116l-249 -309h-101z" />
    <glyph glyph-name="uni0394" unicode="&#x394;" horiz-adv-x="1466" 
d="M37 0l641 1360h106l643 -1360h-1390zM1255 102l-522 1123h-4l-524 -1123h1050z" />
    <glyph glyph-name="uni03A9" unicode="&#x3a9;" horiz-adv-x="1593" 
d="M1477 102v-102h-484v96q187 83 290 235.5t103 354.5q0 260 -165 426t-424 166t-424.5 -166t-165.5 -426q0 -202 103 -354.5t290 -235.5v-96h-483v102h315v4q-162 87 -251 239.5t-89 352.5q0 197 89.5 352.5t250.5 242.5t365 87t365 -87t250 -242.5t89 -352.5
q0 -200 -89 -352.5t-251 -239.5v-4h316z" />
    <glyph glyph-name="uni03BC" unicode="&#x3bc;" horiz-adv-x="1183" 
d="M1030 0h-92l-2 197h-4q-50 -105 -146 -161t-227 -56q-194 0 -299 124h-4v-493h-104v1343h104v-536q0 -161 85.5 -252.5t236.5 -91.5q160 0 254 106t94 287v487h104v-954z" />
    <glyph glyph-name="pi" unicode="&#x3c0;" horiz-adv-x="1204" 
d="M1004 0h-105v862h-594v-862h-104v862h-172v92h1147v-92h-172v-862z" />
    <glyph glyph-name="uni1E02" unicode="&#x1e02;" horiz-adv-x="1292" 
d="M956 700v-4q263 -63 263 -329q0 -180 -116.5 -273.5t-342.5 -93.5h-588v1360h537q227 0 343.5 -89.5t116.5 -264.5q0 -237 -213 -306zM285 741h417q175 0 265 65.5t90 192.5q0 258 -350 258h-422v-516zM285 102h473q171 0 258.5 68.5t87.5 200.5q0 268 -352 268h-467
v-537zM631 1726q32 0 55 -23.5t23 -55.5q0 -31 -23 -54.5t-55 -23.5t-55 23.5t-23 54.5q0 32 23 55.5t55 23.5z" />
    <glyph glyph-name="uni1E03" unicode="&#x1e03;" horiz-adv-x="1222" 
d="M655 975q213 0 350.5 -140t137.5 -358t-137.5 -357.5t-350.5 -139.5q-143 0 -249 57t-164 160h-4l-2 -197h-91v1434h105v-658h4q58 94 161.5 146.5t239.5 52.5zM641 74q174 0 284.5 112.5t110.5 290.5t-110.5 291t-284.5 113t-285.5 -113t-111.5 -291t111.5 -290.5
t285.5 -112.5zM197 1790q32 0 54.5 -23.5t22.5 -56.5q0 -31 -22.5 -54.5t-54.5 -23.5t-55 23.5t-23 54.5q0 32 23 56t55 24z" />
    <glyph glyph-name="uni1E0A" unicode="&#x1e0a;" horiz-adv-x="1488" 
d="M172 1360h516q334 0 526.5 -181.5t192.5 -496.5q0 -318 -192 -500t-527 -182h-516v1360zM285 102h399q284 0 446 155t162 425q0 269 -162 422t-446 153h-399v-1155zM692 1726q32 0 55 -23.5t23 -55.5q0 -31 -23 -54.5t-55 -23.5t-55 23.5t-23 54.5q0 32 23 55.5t55 23.5z
" />
    <glyph glyph-name="uni1E0B" unicode="&#x1e0b;" horiz-adv-x="1224" 
d="M1079 0h-92l-2 197h-4q-58 -103 -164.5 -160t-247.5 -57q-214 0 -351.5 139.5t-137.5 357.5t137.5 358t351.5 140q136 0 240 -54t162 -149h4v662h104v-1434zM582 74q175 0 287 112.5t112 290.5t-112 291t-287 113q-173 0 -284.5 -113t-111.5 -291t111.5 -290.5
t284.5 -112.5zM1026 1790q32 0 55 -24t23 -56q0 -31 -23 -54.5t-55 -23.5t-55 23.5t-23 54.5q0 32 23 56t55 24z" />
    <glyph glyph-name="uni1E1E" unicode="&#x1e1e;" horiz-adv-x="1210" 
d="M1004 729v-102h-719v-627h-113v1360h979v-103h-866v-528h719zM631 1726q32 0 55 -23.5t23 -55.5q0 -31 -23 -54.5t-55 -23.5t-55 23.5t-23 54.5q0 32 23 55.5t55 23.5z" />
    <glyph glyph-name="uni1E1F" unicode="&#x1e1f;" horiz-adv-x="671" 
d="M500 1454q117 0 180 -37v-102h-6q-62 45 -162 45q-96 0 -146.5 -56.5t-50.5 -164.5v-185h334v-92h-334v-862h-104v862h-188v92h188v189q0 148 75.5 229.5t213.5 81.5zM393 1790q32 0 55 -24t23 -56q0 -31 -23 -54.5t-55 -23.5t-55 23.5t-23 54.5q0 32 23 56t55 24z" />
    <glyph glyph-name="uni1E40" unicode="&#x1e40;" horiz-adv-x="1900" 
d="M1729 0h-113v1249h-4l-621 -1249h-92l-612 1235h-4v-1235h-111v1360h174l598 -1210h4l600 1210h181v-1360zM950 1726q32 0 55 -23.5t23 -55.5q0 -31 -23 -54.5t-55 -23.5t-55 23.5t-23 54.5q0 32 23 55.5t55 23.5z" />
    <glyph glyph-name="uni1E41" unicode="&#x1e41;" horiz-adv-x="1759" 
d="M1272 975q179 0 273.5 -108.5t94.5 -311.5v-555h-104v547q0 163 -72 248.5t-211 85.5q-149 0 -229 -98.5t-80 -284.5v-498h-104v547q0 163 -72.5 248.5t-210.5 85.5q-149 0 -228 -98t-79 -281v-502h-105v954h93l2 -168h4q45 92 130 140.5t204 48.5q124 0 208.5 -58
t122.5 -167h4q87 225 359 225zM893 1337q32 0 55 -24t23 -56q0 -31 -23 -54t-55 -23t-55 23t-23 54q0 32 23 56t55 24z" />
    <glyph glyph-name="uni1E56" unicode="&#x1e56;" horiz-adv-x="1280" 
d="M172 1360h576q230 0 347 -104t117 -308q0 -203 -117 -306t-347 -103h-463v-539h-113v1360zM285 641h458q355 0 355 307q0 309 -355 309h-458v-616zM653 1726q32 0 55 -23.5t23 -55.5q0 -31 -23 -54.5t-55 -23.5t-55 23.5t-23 54.5q0 32 23 55.5t55 23.5z" />
    <glyph glyph-name="uni1E57" unicode="&#x1e57;" horiz-adv-x="1222" 
d="M655 975q213 0 350.5 -140t137.5 -358t-137.5 -357.5t-350.5 -139.5q-136 0 -239.5 52t-161.5 146h-4v-567h-105v1343h91l2 -196h4q58 103 164 160t249 57zM641 74q174 0 284.5 112.5t110.5 290.5t-110.5 291t-284.5 113t-285.5 -113t-111.5 -291t111.5 -290.5
t285.5 -112.5zM645 1335q32 0 55 -24t23 -56q0 -31 -23 -54t-55 -23t-55 23t-23 54q0 32 23 56t55 24z" />
    <glyph glyph-name="uni1E60" unicode="&#x1e60;" horiz-adv-x="1175" 
d="M588 1380q144 0 261 -33.5t185 -93.5v-133h-6q-66 75 -181.5 116.5t-258.5 41.5q-166 0 -270.5 -79.5t-104.5 -205.5q0 -114 84.5 -169t304.5 -76q274 -26 386 -112.5t112 -268.5q0 -180 -135 -283.5t-367 -103.5q-162 0 -296 39.5t-220 113.5v133h6q181 -184 512 -184
q181 0 284 75.5t103 209.5q0 125 -89 185.5t-320 84.5q-264 28 -371 107.5t-107 246.5q0 175 134 282t354 107zM586 1726q32 0 55 -23.5t23 -55.5q0 -31 -23 -54.5t-55 -23.5t-55 23.5t-23 54.5q0 32 23 55.5t55 23.5z" />
    <glyph glyph-name="uni1E61" unicode="&#x1e61;" horiz-adv-x="876" 
d="M440 975q98 0 182.5 -22t135.5 -60v-115h-6q-100 103 -310 103q-109 0 -180.5 -55t-71.5 -140q0 -74 57.5 -108t203.5 -41q196 -10 277 -73t81 -198q0 -131 -98.5 -208.5t-264.5 -77.5q-241 0 -364 108v121h6q117 -135 356 -135q120 0 192.5 52t72.5 140q0 83 -60.5 120
t-216.5 46q-189 10 -266.5 69t-77.5 183q0 129 97.5 210t254.5 81zM436 1337q32 0 55 -24t23 -56q0 -31 -23 -54t-55 -23t-55 23t-23 54q0 32 23 56t55 24z" />
    <glyph glyph-name="uni1E6A" unicode="&#x1e6a;" horiz-adv-x="1177" 
d="M647 0h-112v1257h-484v103h1073v-103h-477v-1257zM588 1726q32 0 55 -23.5t23 -55.5q0 -31 -23 -54.5t-55 -23.5t-55 23.5t-23 54.5q0 32 23 55.5t55 23.5z" />
    <glyph glyph-name="uni1E6B" unicode="&#x1e6b;" horiz-adv-x="729" 
d="M653 127v-111q-61 -36 -161 -36q-133 0 -207 80t-74 225v577h-188v92h190l20 254h82v-254h334v-92h-334v-575q0 -100 50 -156.5t139 -56.5q93 0 143 53h6zM270 1579q32 0 55 -24t23 -56q0 -31 -23 -54.5t-55 -23.5t-54.5 23.5t-22.5 54.5q0 33 22.5 56.5t54.5 23.5z" />
    <glyph glyph-name="Wgrave" unicode="&#x1e80;" horiz-adv-x="2048" 
d="M1538 0h-113l-399 1163h-4l-399 -1163h-113l-461 1360h121l395 -1182h4l406 1182h100l406 -1186h4l397 1186h117zM991 1501l-254 309h121l238 -309h-105z" />
    <glyph glyph-name="wgrave" unicode="&#x1e81;" horiz-adv-x="1533" 
d="M1163 0h-100l-293 791h-4l-293 -791h-102l-351 954h111l291 -817h4l301 817h86l301 -817h4l291 817h104zM731 1112l-254 309h121l238 -309h-105z" />
    <glyph glyph-name="Wacute" unicode="&#x1e82;" horiz-adv-x="2048" 
d="M1538 0h-113l-399 1163h-4l-399 -1163h-113l-461 1360h121l395 -1182h4l406 1182h100l406 -1186h4l397 1186h117zM954 1501l238 309h121l-254 -309h-105z" />
    <glyph glyph-name="wacute" unicode="&#x1e83;" horiz-adv-x="1533" 
d="M1163 0h-100l-293 791h-4l-293 -791h-102l-351 954h111l291 -817h4l301 817h86l301 -817h4l291 817h104zM694 1112l238 309h121l-254 -309h-105z" />
    <glyph glyph-name="Wdieresis" unicode="&#x1e84;" horiz-adv-x="2048" 
d="M1538 0h-113l-399 1163h-4l-399 -1163h-113l-461 1360h121l395 -1182h4l406 1182h100l406 -1186h4l397 1186h117zM836 1722q33 0 54 -22t21 -53q0 -30 -21 -52t-54 -22q-30 0 -52 22t-22 52q0 31 21.5 53t52.5 22zM1217 1722q31 0 52 -22t21 -53q0 -30 -21.5 -52
t-51.5 -22q-33 0 -54.5 22t-21.5 52q0 31 21.5 53t54.5 22z" />
    <glyph glyph-name="wdieresis" unicode="&#x1e85;" horiz-adv-x="1533" 
d="M1163 0h-100l-293 791h-4l-293 -791h-102l-351 954h111l291 -817h4l301 817h86l301 -817h4l291 817h104zM575 1333q33 0 54.5 -22.5t21.5 -53.5q0 -30 -21.5 -51.5t-54.5 -21.5q-30 0 -51.5 21.5t-21.5 51.5q0 31 21.5 53.5t51.5 22.5zM956 1333q31 0 52.5 -22.5
t21.5 -53.5q0 -29 -22 -51t-52 -22q-33 0 -54 21.5t-21 51.5q0 32 21 54t54 22z" />
    <glyph glyph-name="Ygrave" unicode="&#x1ef2;" horiz-adv-x="1341" 
d="M731 0h-113v610l-595 750h143l508 -651l508 651h137l-588 -744v-616zM635 1501l-254 309h121l237 -309h-104z" />
    <glyph glyph-name="ygrave" unicode="&#x1ef3;" horiz-adv-x="1001" 
d="M348 -389h-108l204 426l-424 917h113l369 -800h4l366 800h109zM465 1112l-254 309h121l237 -309h-104z" />
    <glyph glyph-name="uni2007" unicode="&#x2007;" horiz-adv-x="1331" 
 />
    <glyph glyph-name="figuredash" unicode="&#x2012;" horiz-adv-x="1331" 
d="M102 633v94h1127v-94h-1127z" />
    <glyph glyph-name="endash" unicode="&#x2013;" horiz-adv-x="1024" 
d="M102 510v94h820v-94h-820z" />
    <glyph glyph-name="emdash" unicode="&#x2014;" horiz-adv-x="2048" 
d="M102 510v94h1844v-94h-1844z" />
    <glyph glyph-name="quoteleft" unicode="&#x2018;" horiz-adv-x="479" 
d="M365 1360l-138 -410h-108l160 410h86z" />
    <glyph glyph-name="quoteright" unicode="&#x2019;" horiz-adv-x="479" 
d="M113 950l137 410h108l-159 -410h-86z" />
    <glyph glyph-name="quotesinglbase" unicode="&#x201a;" horiz-adv-x="479" 
d="M68 -289l137 410h108l-159 -410h-86z" />
    <glyph glyph-name="quotedblleft" unicode="&#x201c;" horiz-adv-x="806" 
d="M365 1360l-138 -410h-108l160 410h86zM694 1360l-137 -410h-108l159 410h86z" />
    <glyph glyph-name="quotedblright" unicode="&#x201d;" horiz-adv-x="847" 
d="M113 950l137 410h108l-159 -410h-86zM442 950l138 410h108l-160 -410h-86z" />
    <glyph glyph-name="quotedblbase" unicode="&#x201e;" horiz-adv-x="806" 
d="M397 -289l138 410h108l-160 -410h-86zM68 -289l137 410h108l-159 -410h-86z" />
    <glyph glyph-name="dagger" unicode="&#x2020;" horiz-adv-x="1005" 
d="M549 993v-800h-92v800h-344v82h344v359h92v-359h342v-82h-342z" />
    <glyph glyph-name="daggerdbl" unicode="&#x2021;" horiz-adv-x="1005" 
d="M549 633h342v-82h-342v-358h-92v358h-344v82h344v360h-344v82h344v359h92v-359h342v-82h-342v-360z" />
    <glyph glyph-name="bullet" unicode="&#x2022;" horiz-adv-x="1024" 
d="M512 838q122 0 201.5 -80t79.5 -201t-79.5 -201t-201.5 -80t-201.5 80t-79.5 201t79.5 201t201.5 80z" />
    <glyph glyph-name="ellipsis" unicode="&#x2026;" horiz-adv-x="2048" 
d="M1657 141q34 0 57 -23.5t23 -58.5q0 -34 -23 -56.5t-57 -22.5t-57 22.5t-23 56.5q0 35 23 58.5t57 23.5zM1024 141q34 0 57 -23.5t23 -58.5q0 -34 -23 -56.5t-57 -22.5t-57 22.5t-23 56.5q0 35 23 58.5t57 23.5zM393 141q34 0 57 -23.5t23 -58.5q0 -34 -23 -56.5
t-57 -22.5t-57 22.5t-23 56.5q0 35 23 58.5t57 23.5z" />
    <glyph glyph-name="perthousand" unicode="&#x2030;" horiz-adv-x="2250" 
d="M1872 653q142 0 223.5 -90.5t81.5 -247.5q0 -156 -81.5 -245.5t-223.5 -89.5t-223.5 89.5t-81.5 245.5q0 157 81.5 247.5t223.5 90.5zM1872 567q-100 0 -154.5 -65.5t-54.5 -186.5q0 -120 54.5 -184.5t154.5 -64.5t154.5 64.5t54.5 184.5q0 121 -54.5 186.5t-154.5 65.5z
M379 1380q142 0 223.5 -90.5t81.5 -247.5q0 -156 -81.5 -245.5t-223.5 -89.5t-223.5 89.5t-81.5 245.5q0 157 81.5 247.5t223.5 90.5zM283 0l868 1360h106l-868 -1360h-106zM379 1294q-100 0 -154.5 -65.5t-54.5 -186.5q0 -120 54.5 -184.5t154.5 -64.5t154.5 64.5
t54.5 184.5q0 121 -54.5 186.5t-154.5 65.5zM1159 653q142 0 223.5 -90.5t81.5 -247.5q0 -156 -81.5 -245.5t-223.5 -89.5t-223.5 89.5t-81.5 245.5q0 157 81.5 247.5t223.5 90.5zM1159 567q-100 0 -154.5 -65.5t-54.5 -186.5q0 -120 54.5 -184.5t154.5 -64.5t154.5 64.5
t54.5 184.5q0 121 -54.5 186.5t-154.5 65.5z" />
    <glyph glyph-name="guilsinglleft" unicode="&#x2039;" horiz-adv-x="581" 
d="M471 172v-117l-401 418v8l401 418v-119l-297 -303z" />
    <glyph glyph-name="guilsinglright" unicode="&#x203a;" horiz-adv-x="581" 
d="M111 782v117l401 -418v-8l-401 -418v119l297 303z" />
    <glyph glyph-name="fraction" unicode="&#x2044;" horiz-adv-x="299" 
d="M-338 0l881 1360h94l-881 -1360h-94z" />
    <glyph glyph-name="zerosuperior" unicode="&#x2070;" 
d="M420 1647q160 0 248 -113.5t88 -319.5q0 -205 -88 -318.5t-248 -113.5t-248 113.5t-88 318.5q0 206 88 319.5t248 113.5zM420 1569q-120 0 -185 -92t-65 -263q0 -170 65 -262t185 -92t185 92t65 262q0 171 -65 263t-185 92z" />
    <glyph glyph-name="foursuperior" unicode="&#x2074;" 
d="M672 795h-84v176h-498v73l496 590h86v-585h119v-78h-119v-176zM190 1049h398v471z" />
    <glyph glyph-name="fivesuperior" unicode="&#x2075;" 
d="M426 1333q147 0 228 -70.5t81 -199.5q0 -130 -87 -205.5t-236 -75.5q-94 0 -170 23.5t-119 66.5v95h6q87 -107 279 -107q115 0 178 53t63 150q0 94 -64.5 144t-187.5 50q-130 0 -241 -59h-6v436h532v-78h-453v-253q74 30 197 30z" />
    <glyph glyph-name="sixsuperior" unicode="&#x2076;" 
d="M465 1333q129 0 209 -73.5t80 -194.5q0 -127 -83 -205t-220 -78q-166 0 -259.5 108t-93.5 302q0 217 98 336t275 119q148 0 219 -62v-92h-6q-76 76 -205 76q-137 0 -214 -89.5t-81 -256.5h4q93 110 277 110zM446 860q101 0 161.5 55.5t60.5 147.5q0 90 -59 141t-158 51
q-85 0 -155.5 -39t-107.5 -106q12 -117 80.5 -183.5t177.5 -66.5z" />
    <glyph glyph-name="sevensuperior" unicode="&#x2077;" 
d="M776 1552l-497 -757h-101l506 761h-553v78h645v-82z" />
    <glyph glyph-name="eightsuperior" unicode="&#x2078;" 
d="M588 1231v-4q83 -23 126.5 -77t43.5 -134q0 -109 -90 -171.5t-248 -62.5t-248 62.5t-90 171.5q0 78 43.5 131t126.5 76v4q-146 48 -146 194q0 106 84 166t230 60t229.5 -60t83.5 -166q0 -143 -145 -190zM193 1413q0 -73 58 -111t169 -38t169 38t58 111q0 74 -59.5 115
t-167.5 41t-167.5 -41t-59.5 -115zM420 860q120 0 186 43.5t66 122.5q0 78 -65 119t-187 41t-187 -41t-65 -119q0 -79 66 -122.5t186 -43.5z" />
    <glyph glyph-name="ninesuperior" unicode="&#x2079;" 
d="M389 1647q166 0 259 -107.5t93 -302.5q0 -217 -97.5 -336t-274.5 -119q-148 0 -219 62v92h6q76 -76 204 -76q137 0 214 89.5t81 256.5h-4q-93 -110 -276 -110q-129 0 -209 73.5t-80 194.5q0 127 83 205t220 78zM389 1174q85 0 155 39t107 106q-12 117 -80.5 183.5
t-177.5 66.5q-101 0 -161 -55.5t-60 -147.5q0 -90 59 -141t158 -51z" />
    <glyph glyph-name="zeroinferior" unicode="&#x2080;" 
d="M420 463q160 0 248 -113.5t88 -318.5t-88 -318.5t-248 -113.5t-248 113.5t-88 318.5t88 318.5t248 113.5zM420 385q-120 0 -185 -91.5t-65 -262.5q0 -170 65 -262.5t185 -92.5t185 92.5t65 262.5q0 171 -65 262.5t-185 91.5z" />
    <glyph glyph-name="oneinferior" unicode="&#x2081;" 
d="M592 -389h-84v733l-229 -147v90l247 164h66v-840z" />
    <glyph glyph-name="twoinferior" unicode="&#x2082;" 
d="M705 -311v-78h-570v82l160 127q189 151 256 232.5t67 158.5q0 85 -53.5 129.5t-156.5 44.5q-148 0 -254 -106h-7v94q51 41 122 65.5t141 24.5q142 0 218.5 -63.5t76.5 -182.5q0 -97 -72.5 -188.5t-278.5 -253.5l-104 -82v-4h455z" />
    <glyph glyph-name="threeinferior" unicode="&#x2083;" 
d="M584 45v-4q73 -23 112 -75.5t39 -129.5q0 -112 -83.5 -174.5t-233.5 -62.5q-92 0 -167 25t-118 69v96h6q41 -53 114.5 -83t162.5 -30q111 0 172 43.5t61 124.5q0 78 -56.5 118t-164.5 40h-131v76h113q108 0 164.5 38t56.5 111q0 76 -57.5 117t-163.5 41
q-72 0 -138.5 -27.5t-113.5 -76.5h-6v94q44 40 116 64t148 24q141 0 221 -59.5t80 -165.5q0 -139 -133 -193z" />
    <glyph glyph-name="fourinferior" unicode="&#x2084;" 
d="M672 -389h-84v176h-498v74l496 590h86v-586h119v-78h-119v-176zM190 -135h398v471z" />
    <glyph glyph-name="fiveinferior" unicode="&#x2085;" 
d="M426 150q146 0 227.5 -71t81.5 -200q0 -130 -86.5 -205t-236.5 -75q-94 0 -170 23.5t-119 66.5v94h6q87 -107 279 -107q115 0 178 53t63 150q0 94 -64.5 144.5t-187.5 50.5q-128 0 -241 -60h-6v437h532v-78h-453v-254q77 31 197 31z" />
    <glyph glyph-name="sixinferior" unicode="&#x2086;" 
d="M465 150q129 0 209 -74t80 -195q0 -127 -83 -204.5t-220 -77.5q-166 0 -259.5 107.5t-93.5 301.5q0 217 98 336t275 119q148 0 219 -62v-92h-6q-76 76 -205 76q-137 0 -214 -89.5t-81 -256.5h4q94 111 277 111zM446 -324q101 0 161.5 55.5t60.5 147.5q0 90 -59 141.5
t-158 51.5q-85 0 -155.5 -39.5t-107.5 -106.5q12 -117 80.5 -183.5t177.5 -66.5z" />
    <glyph glyph-name="seveninferior" unicode="&#x2087;" 
d="M776 369l-497 -758h-101l506 762h-553v78h645v-82z" />
    <glyph glyph-name="eightinferior" unicode="&#x2088;" 
d="M588 47v-4q83 -23 126.5 -77t43.5 -134q0 -109 -90 -171t-248 -62t-248 62t-90 171q0 78 43.5 131t126.5 76v4q-146 48 -146 195q0 106 83.5 165.5t230.5 59.5q146 0 229.5 -59.5t83.5 -165.5q0 -144 -145 -191zM193 229q0 -73 58 -111t169 -38t169 38t58 111
q0 74 -59.5 115t-167.5 41t-167.5 -41t-59.5 -115zM420 -324q120 0 186 43.5t66 122.5q0 78 -65 119t-187 41t-187 -41t-65 -119q0 -79 66 -122.5t186 -43.5z" />
    <glyph glyph-name="nineinferior" unicode="&#x2089;" 
d="M389 463q166 0 259 -107.5t93 -302.5q0 -217 -97.5 -335.5t-274.5 -118.5q-149 0 -219 61v92h6q76 -76 204 -76q137 0 214 90t81 257h-4q-94 -111 -276 -111q-129 0 -209 73.5t-80 194.5q0 127 83 205t220 78zM389 -10q85 0 155 39t107 106q-12 117 -80.5 183.5
t-177.5 66.5q-101 0 -161 -55.5t-60 -147.5q0 -90 59 -141t158 -51z" />
    <glyph glyph-name="Euro" unicode="&#x20ac;" horiz-adv-x="1331" 
d="M858 1284q-184 0 -309 -100.5t-172 -284.5h684v-94h-701q-8 -52 -8 -125q0 -56 6 -109h703v-94h-686q43 -191 169 -296t314 -105q218 0 336 121h6v-117q-57 -47 -148.5 -73.5t-199.5 -26.5q-232 0 -387.5 131.5t-202.5 365.5h-153v94h141q-6 53 -6 109q0 66 6 125h-141
v94h157q51 227 204 354t382 127q108 0 199.5 -26.5t148.5 -73.5v-117h-6q-118 121 -336 121z" />
    <glyph glyph-name="uni20B9" unicode="&#x20b9;" horiz-adv-x="1331" 
d="M866 1270v-4q125 -75 140 -238h202v-90h-202q-14 -164 -127 -248t-322 -84h-104v-4l700 -602h-145l-715 621v77h242q173 0 262 57t102 183h-762v90h762q-13 124 -102 181t-262 57h-398v94h1071v-90h-342z" />
    <glyph glyph-name="uni2113" unicode="&#x2113;" horiz-adv-x="933" 
d="M791 156v-117q-79 -59 -201 -59q-146 0 -227.5 86t-81.5 247v27q-65 -44 -138 -84v106q73 40 138 87v634q0 141 69 218t195 77q115 0 179 -74t64 -208q0 -174 -103 -349t-300 -329v-92q0 -124 53 -188t156 -64q116 0 190 82h7zM385 1073v-541q145 127 224 272.5t79 291.5
q0 188 -143 188q-79 0 -119.5 -54t-40.5 -157z" />
    <glyph glyph-name="uni2117" unicode="&#x2117;" horiz-adv-x="1636" 
d="M817 1380q198 0 358.5 -91t251.5 -251t91 -358t-91 -358t-251.5 -251t-358.5 -91t-358 91t-251 251t-91 358t91 358t251 251t358 91zM817 53q175 0 317 81t223 225t81 321t-81 321t-223 225t-317 81q-130 0 -245 -47.5t-197.5 -130.5t-130 -199.5t-47.5 -249.5
t47.5 -249.5t130 -199.5t197.5 -130.5t245 -47.5zM588 1038h303q252 0 252 -221q0 -223 -252 -223h-223v-272h-80v716zM668 668h223q170 0 170 149q0 148 -170 148h-223v-297z" />
    <glyph glyph-name="trademark" unicode="&#x2122;" horiz-adv-x="1560" 
d="M557 1360v-68h-221v-622h-76v622h-223v68h520zM1438 670h-76v604h-4l-268 -606h-74l-264 592h-4v-590h-72v690h115l260 -588h4l260 588h123v-690z" />
    <glyph glyph-name="uni2126" unicode="&#x2126;" horiz-adv-x="1593" 
d="M1477 102v-102h-484v96q187 83 290 235.5t103 354.5q0 260 -165 426t-424 166t-424.5 -166t-165.5 -426q0 -202 103 -354.5t290 -235.5v-96h-483v102h315v4q-162 87 -251 239.5t-89 352.5q0 197 89.5 352.5t250.5 242.5t365 87t365 -87t250 -242.5t89 -352.5
q0 -200 -89 -352.5t-251 -239.5v-4h316z" />
    <glyph glyph-name="estimated" unicode="&#x212e;" horiz-adv-x="1671" 
d="M836 1380q150 0 286.5 -55t235.5 -148.5t157 -223.5t58 -273v-16h-1196q-8 0 -8 -9v-385q0 -17 16 -41q86 -98 204.5 -153.5t250.5 -55.5q138 0 261.5 62.5t213.5 171.5h108q-105 -127 -258.5 -200.5t-328.5 -73.5q-150 0 -287 55.5t-235.5 149t-157 223t-58.5 272.5
t58.5 273t157 223.5t235.5 148.5t287 55zM840 1339q-131 0 -248 -54t-207 -150q-16 -24 -16 -45v-377q0 -13 8 -13h917q13 0 13 13v385q0 24 -21 45q-89 92 -205 144t-241 52z" />
    <glyph glyph-name="onethird" unicode="&#x2153;" horiz-adv-x="1978" 
d="M502 0l880 1360h95l-881 -1360h-94zM1722 434v-4q74 -23 113 -76t39 -129q0 -112 -84 -174.5t-234 -62.5q-92 0 -166.5 25t-117.5 69v96h6q41 -53 114 -82.5t162 -29.5q111 0 172.5 43t61.5 124q0 78 -56.5 118t-164.5 40h-131v76h112q108 0 164.5 38t56.5 111
q0 76 -57.5 117t-163.5 41q-72 0 -138.5 -27.5t-113.5 -76.5h-6v94q44 40 116 64t148 24q141 0 221 -59.5t80 -165.5q0 -139 -133 -193zM592 520h-84v733l-229 -147v90l247 164h66v-840z" />
    <glyph glyph-name="twothirds" unicode="&#x2154;" horiz-adv-x="1978" 
d="M532 0l881 1360h94l-880 -1360h-95zM1722 434v-4q74 -23 113 -76t39 -129q0 -112 -84 -174.5t-234 -62.5q-92 0 -166.5 25t-117.5 69v96h6q41 -53 114 -82.5t162 -29.5q111 0 172.5 43t61.5 124q0 78 -56.5 118t-164.5 40h-131v76h112q108 0 164.5 38t56.5 111
q0 76 -57.5 117t-163.5 41q-72 0 -138.5 -27.5t-113.5 -76.5h-6v94q44 40 116 64t148 24q141 0 221 -59.5t80 -165.5q0 -139 -133 -193zM705 598v-78h-570v82l160 127q189 151 256 232.5t67 158.5q0 85 -53.5 129.5t-156.5 44.5q-148 0 -254 -106h-7v94q51 41 122 65.5
t141 24.5q142 0 218.5 -63.5t76.5 -182.5q0 -97 -72.5 -188.5t-278.5 -253.5l-104 -82v-4h455z" />
    <glyph glyph-name="oneeighth" unicode="&#x215b;" horiz-adv-x="1978" 
d="M502 0l880 1360h95l-881 -1360h-94zM1726 436v-4q83 -23 126.5 -77t43.5 -134q0 -109 -89.5 -171t-247.5 -62t-248 62t-90 171q0 78 43.5 131t126.5 76v4q-146 48 -146 195q0 106 83.5 165.5t230.5 59.5q146 0 229.5 -59.5t83.5 -165.5q0 -144 -146 -191zM1331 618
q0 -73 58.5 -111t169.5 -38t169 38t58 111q0 74 -59.5 115t-167.5 41t-168 -41t-60 -115zM1559 66q120 0 185.5 43t65.5 122q0 78 -64.5 119t-186.5 41t-187 -41t-65 -119q0 -79 66 -122t186 -43zM592 520h-84v733l-229 -147v90l247 164h66v-840z" />
    <glyph glyph-name="threeeighths" unicode="&#x215c;" horiz-adv-x="1978" 
d="M510 0l881 1360h94l-881 -1360h-94zM1726 436v-4q83 -23 126.5 -77t43.5 -134q0 -109 -89.5 -171t-247.5 -62t-248 62t-90 171q0 78 43.5 131t126.5 76v4q-146 48 -146 195q0 106 83.5 165.5t230.5 59.5q146 0 229.5 -59.5t83.5 -165.5q0 -144 -146 -191zM1331 618
q0 -73 58.5 -111t169.5 -38t169 38t58 111q0 74 -59.5 115t-167.5 41t-168 -41t-60 -115zM1559 66q120 0 185.5 43t65.5 122q0 78 -64.5 119t-186.5 41t-187 -41t-65 -119q0 -79 66 -122t186 -43zM584 954v-4q73 -23 112 -75.5t39 -129.5q0 -112 -83.5 -174.5t-233.5 -62.5
q-92 0 -167 25t-118 69v96h6q41 -53 114.5 -82.5t162.5 -29.5q111 0 172 43.5t61 124.5q0 78 -56.5 117.5t-164.5 39.5h-131v76h113q108 0 164.5 38.5t56.5 111.5q0 76 -57.5 116.5t-163.5 40.5q-72 0 -138.5 -27.5t-113.5 -76.5h-6v94q44 40 116 64t148 24q141 0 221 -59.5
t80 -165.5q0 -139 -133 -193z" />
    <glyph glyph-name="fiveeighths" unicode="&#x215d;" horiz-adv-x="1978" 
d="M510 0l881 1360h94l-881 -1360h-94zM1726 436v-4q83 -23 126.5 -77t43.5 -134q0 -109 -89.5 -171t-247.5 -62t-248 62t-90 171q0 78 43.5 131t126.5 76v4q-146 48 -146 195q0 106 83.5 165.5t230.5 59.5q146 0 229.5 -59.5t83.5 -165.5q0 -144 -146 -191zM1331 618
q0 -73 58.5 -111t169.5 -38t169 38t58 111q0 74 -59.5 115t-167.5 41t-168 -41t-60 -115zM1559 66q120 0 185.5 43t65.5 122q0 78 -64.5 119t-186.5 41t-187 -41t-65 -119q0 -79 66 -122t186 -43zM426 1059q146 0 227.5 -71t81.5 -200q0 -130 -86.5 -205t-236.5 -75
q-94 0 -170 23.5t-119 66.5v94h6q86 -106 279 -106q115 0 178 52.5t63 149.5q0 94 -64.5 144.5t-187.5 50.5q-130 0 -241 -59h-6v436h532v-78h-453v-254q77 31 197 31z" />
    <glyph glyph-name="seveneighths" unicode="&#x215e;" horiz-adv-x="1978" 
d="M403 0l881 1360h94l-880 -1360h-95zM1726 436v-4q83 -23 126.5 -77t43.5 -134q0 -109 -89.5 -171t-247.5 -62t-248 62t-90 171q0 78 43.5 131t126.5 76v4q-146 48 -146 195q0 106 83.5 165.5t230.5 59.5q146 0 229.5 -59.5t83.5 -165.5q0 -144 -146 -191zM1331 618
q0 -73 58.5 -111t169.5 -38t169 38t58 111q0 74 -59.5 115t-167.5 41t-168 -41t-60 -115zM1559 66q120 0 185.5 43t65.5 122q0 78 -64.5 119t-186.5 41t-187 -41t-65 -119q0 -79 66 -122t186 -43zM776 1278l-497 -758h-101l506 762h-553v78h645v-82z" />
    <glyph glyph-name="partialdiff" unicode="&#x2202;" horiz-adv-x="1216" 
d="M639 1454q220 0 343.5 -152t123.5 -421q0 -192 -47.5 -359.5t-130.5 -286.5t-199.5 -187t-249.5 -68q-169 0 -277 112t-108 287q0 153 66.5 282.5t181 205t250.5 75.5q127 0 229.5 -60.5t161.5 -166.5h4q10 92 10 170q0 226 -97 349.5t-277 123.5q-171 0 -293 -111h-6
v111q125 96 315 96zM485 76q167 0 295 137.5t183 366.5q-44 122 -141 194t-216 72q-112 0 -204.5 -62t-145.5 -169.5t-53 -235.5q0 -132 79 -217.5t203 -85.5z" />
    <glyph glyph-name="uni2206" unicode="&#x2206;" horiz-adv-x="1464" 
d="M37 0l641 1360h106l643 -1360h-1390zM1255 102l-522 1123h-4l-524 -1123h1050z" />
    <glyph glyph-name="product" unicode="&#x220f;" horiz-adv-x="1415" 
d="M1249 -266h-112v1523h-858v-1523h-113v1626h1083v-1626z" />
    <glyph glyph-name="summation" unicode="&#x2211;" horiz-adv-x="1163" 
d="M246 1257l573 -710l-573 -711h872v-102h-1024v96l576 717l-576 717v96h1024v-103h-872z" />
    <glyph glyph-name="minus" unicode="&#x2212;" horiz-adv-x="1331" 
d="M109 567v95h1114v-95h-1114z" />
    <glyph glyph-name="uni2219" unicode="&#x2219;" horiz-adv-x="479" 
d="M240 762q34 0 56.5 -23.5t22.5 -58.5q0 -34 -22.5 -57t-56.5 -23t-57 23t-23 57q0 35 23 58.5t57 23.5z" />
    <glyph glyph-name="radical" unicode="&#x221a;" horiz-adv-x="1044" 
d="M580 -143h-117l-223 499h-152v95h225l195 -445h4l391 1395h113z" />
    <glyph glyph-name="infinity" unicode="&#x221e;" horiz-adv-x="1415" 
d="M1028 985q129 0 208 -83.5t79 -221.5t-80 -221.5t-211 -83.5q-101 0 -177.5 51.5t-141.5 165.5h-5q-67 -115 -142 -166t-173 -51q-128 0 -206.5 84.5t-78.5 220.5q0 137 79.5 221t209.5 84q100 0 176.5 -51.5t143.5 -167.5h4q67 116 142 167.5t173 51.5zM397 463
q79 0 140 48t122 159q-72 127 -134 177t-146 50q-85 0 -135.5 -59.5t-50.5 -157.5q0 -99 55.5 -158t148.5 -59zM1034 463q86 0 137.5 58.5t51.5 158.5q0 98 -55.5 157.5t-149.5 59.5q-79 0 -139.5 -47.5t-122.5 -161.5q68 -123 131.5 -174t146.5 -51z" />
    <glyph glyph-name="integral" unicode="&#x222b;" horiz-adv-x="757" 
d="M551 1454q104 0 160 -47v-107h-6q-48 60 -140 60q-135 0 -135 -168v-1346q0 -256 -223 -256q-102 0 -162 48v106h6q47 -59 139 -59q138 0 138 168v1345q0 256 223 256z" />
    <glyph glyph-name="approxequal" unicode="&#x2248;" horiz-adv-x="1331" 
d="M1165 1008l76 -47q-145 -250 -330 -250q-63 0 -123.5 23.5t-148.5 86.5q-71 52 -120 73t-95 21q-71 0 -132.5 -48t-125.5 -154l-76 47q145 250 330 250q65 0 125.5 -25t148.5 -88q75 -53 121.5 -72.5t91.5 -19.5q70 0 131.5 48.5t126.5 154.5zM1165 516l76 -47
q-145 -250 -330 -250q-63 0 -123 24t-149 87q-71 52 -120 73t-95 21q-70 0 -131.5 -48.5t-126.5 -154.5l-76 47q145 250 330 250q65 0 126 -24.5t148 -87.5q75 -54 121.5 -73.5t91.5 -19.5q70 0 131.5 48.5t126.5 154.5z" />
    <glyph glyph-name="notequal" unicode="&#x2260;" horiz-adv-x="1331" 
d="M598 403h604v-92h-663l-191 -295h-98l190 295h-311v92h371l274 422h-645v93h705l190 294h98l-190 -294h270v-93h-330z" />
    <glyph glyph-name="lessequal" unicode="&#x2264;" horiz-adv-x="1331" 
d="M1182 362v-102l-1032 418v76l1032 417v-100l-891 -354zM1182 0h-1032v94h1032v-94z" />
    <glyph glyph-name="greaterequal" unicode="&#x2265;" horiz-adv-x="1331" 
d="M150 260v102l890 355l-890 354v100l1032 -417v-76zM1182 0h-1032v94h1032v-94z" />
    <glyph glyph-name="lozenge" unicode="&#x25ca;" horiz-adv-x="1214" 
d="M567 0l-467 680l467 680h78l469 -680l-469 -680h-78zM213 680l393 -576l393 576l-393 575z" />
    <glyph glyph-name="uniE069" unicode="&#xe069;" horiz-adv-x="393" 
d="M197 1335q32 0 53.5 -22.5t21.5 -55.5q0 -31 -21.5 -53t-53.5 -22t-54 22t-22 53q0 32 22 55t54 23zM145 0v954h105v-954h-105z" />
    <glyph glyph-name="uniEF01" unicode="&#xef01;" horiz-adv-x="1024" 
d="M238 -430l223 295h117l-240 -295h-100z" />
    <glyph glyph-name="uniEF02" unicode="&#xef02;" horiz-adv-x="1024" 
d="M426 1071l70 363h102l-90 -363h-82z" />
    <glyph glyph-name="uniF8FF" unicode="&#xf8ff;" horiz-adv-x="2048" 
d="M899 430v107h-2l-35 -160h-47l57 258h58l-2 -135h2l57 135h64l-58 -258h-49l35 160h-2l-45 -107h-33zM287 584l-35 -158q-8 -26 -19.5 -37.5t-31.5 -11.5h-95l58 258h88q37 0 37 -31q0 -8 -2 -20zM600 377h-49l12 53h-35l-14 -53h-49l47 211q9 47 53 47h45q37 0 37 -31
q0 -8 -2 -20zM1167 377h-49l12 53h-34l-15 -53h-49l47 211q9 47 54 47h45q36 0 36 -31q0 -8 -2 -20zM821 584l-22 -107q-8 -35 -27 -41l12 -59h-47l-8 53h-27l-12 -53h-49l57 258h88q37 0 37 -31q0 -8 -2 -20zM1731 584l-25 -109q-9 -45 -49 -45h-45l-13 -53h-49l58 258h88
q37 0 37 -31q0 -8 -2 -20zM477 635l-57 -258h-49l12 53h-37l-12 -53h-49l57 258h49l-37 -166h37l37 166h49zM1440 635h49l-35 -154q-1 -7 0.5 -9.5t7.5 -2.5h15q9 0 12 8l35 158h49l-35 -160q-9 -45 -49 -45l-29 -53h-49l29 53q-37 0 -37 31q0 10 2 20zM1845 496l-8 -39h-53
l-8 -41h67l-10 -39h-115l58 258h116l-10 -39h-65l-23 -100h51zM1374 596l-49 -219h-49l49 219h-39l8 39h125l-8 -39h-37zM205 596l-41 -180h26q10 0 13 10l35 158q2 12 -7 12h-26zM1659 477l22 107q1 7 -0.5 9.5t-7.5 2.5h-24l-29 -127h27q9 0 12 8zM750 477l22 107
q1 7 -0.5 9.5t-7.5 2.5h-25l-28 -127h26q10 0 13 8zM1155 596h-14q-11 0 -13 -10l-26 -117h37l24 115q1 7 -0.5 9.5t-7.5 2.5zM588 596h-15q-9 0 -12 -10l-26 -117h36l25 115q1 7 -0.5 9.5t-7.5 2.5zM2021 682v-61h-12v51h-2l-14 -41h-8l-15 41h-2v-51h-10v61h20l11 -33h2
l10 33h20zM1950 682v-10h-19v-51h-12v51h-16v10h47z" />
    <glyph glyph-name="zero.numr" 
d="M420 1372q160 0 248 -113.5t88 -318.5t-88 -318.5t-248 -113.5t-248 113.5t-88 318.5t88 318.5t248 113.5zM420 1294q-120 0 -185 -91.5t-65 -262.5q0 -170 65 -262t185 -92t185 92t65 262q0 171 -65 262.5t-185 91.5z" />
    <glyph glyph-name="one.numr" 
d="M592 520h-84v733l-229 -147v90l247 164h66v-840z" />
    <glyph glyph-name="two.numr" 
d="M705 598v-78h-570v82l160 127q189 151 256 232.5t67 158.5q0 85 -53.5 129.5t-156.5 44.5q-148 0 -254 -106h-7v94q51 41 122 65.5t141 24.5q142 0 218.5 -63.5t76.5 -182.5q0 -97 -72.5 -188.5t-278.5 -253.5l-104 -82v-4h455z" />
    <glyph glyph-name="three.numr" 
d="M584 954v-4q73 -23 112 -75.5t39 -129.5q0 -112 -83.5 -174.5t-233.5 -62.5q-92 0 -167 25t-118 69v96h6q41 -53 114.5 -82.5t162.5 -29.5q111 0 172 43.5t61 124.5q0 78 -56.5 117.5t-164.5 39.5h-131v76h113q108 0 164.5 38.5t56.5 111.5q0 76 -57.5 116.5t-163.5 40.5
q-72 0 -138.5 -27.5t-113.5 -76.5h-6v94q44 40 116 64t148 24q141 0 221 -59.5t80 -165.5q0 -139 -133 -193z" />
    <glyph glyph-name="four.numr" 
d="M672 520h-84v176h-498v74l496 590h86v-586h119v-78h-119v-176zM190 774h398v471z" />
    <glyph glyph-name="five.numr" 
d="M426 1059q146 0 227.5 -71t81.5 -200q0 -130 -86.5 -205t-236.5 -75q-94 0 -170 23.5t-119 66.5v94h6q86 -106 279 -106q115 0 178 52.5t63 149.5q0 94 -64.5 144.5t-187.5 50.5q-130 0 -241 -59h-6v436h532v-78h-453v-254q77 31 197 31z" />
    <glyph glyph-name="six.numr" 
d="M465 1059q129 0 209 -73.5t80 -194.5q0 -127 -83 -205t-220 -78q-166 0 -259.5 108t-93.5 302q0 216 98 335t275 119q149 0 219 -61v-92h-6q-75 75 -205 75q-137 0 -214 -89.5t-81 -256.5h4q94 111 277 111zM446 586q101 0 161.5 55t60.5 147q0 90 -59 141.5t-158 51.5
q-85 0 -155.5 -39t-107.5 -106q12 -117 80.5 -183.5t177.5 -66.5z" />
    <glyph glyph-name="seven.numr" 
d="M776 1278l-497 -758h-101l506 762h-553v78h645v-82z" />
    <glyph glyph-name="eight.numr" 
d="M588 956v-4q83 -23 126.5 -77t43.5 -134q0 -109 -90 -171t-248 -62t-248 62t-90 171q0 78 43.5 131t126.5 76v4q-146 48 -146 195q0 106 83.5 165.5t230.5 59.5q146 0 229.5 -59.5t83.5 -165.5q0 -144 -145 -191zM193 1139q0 -73 58.5 -111.5t168.5 -38.5t168.5 38.5
t58.5 111.5q0 74 -59.5 114.5t-167.5 40.5t-167.5 -40.5t-59.5 -114.5zM420 586q120 0 186 43.5t66 122.5q0 78 -65 118.5t-187 40.5t-187 -40.5t-65 -118.5q0 -79 66 -122.5t186 -43.5z" />
    <glyph glyph-name="nine.numr" 
d="M389 1372q166 0 259 -107.5t93 -301.5q0 -217 -97.5 -336t-274.5 -119q-149 0 -219 61v93h6q76 -76 204 -76q137 0 214 89.5t81 256.5h-4q-94 -111 -276 -111q-129 0 -209 74t-80 195q0 127 83 204.5t220 77.5zM389 899q85 0 155 39t107 106q-12 117 -80.5 183.5
t-177.5 66.5q-101 0 -161 -55t-60 -147q0 -90 59 -141.5t158 -51.5z" />
    <glyph glyph-name="zero.dnom" 
d="M420 852q160 0 248 -113.5t88 -318.5t-88 -318.5t-248 -113.5t-248 113.5t-88 318.5t88 318.5t248 113.5zM420 774q-120 0 -185 -91.5t-65 -262.5q0 -170 65 -262t185 -92t185 92t65 262q0 171 -65 262.5t-185 91.5z" />
    <glyph glyph-name="one.dnom" 
d="M592 0h-84v733l-229 -147v90l247 164h66v-840z" />
    <glyph glyph-name="two.dnom" 
d="M705 78v-78h-570v82l160 127q189 151 256 232.5t67 158.5q0 85 -53.5 129.5t-156.5 44.5q-148 0 -254 -106h-7v94q51 41 122 65.5t141 24.5q142 0 218.5 -63.5t76.5 -182.5q0 -97 -72.5 -188.5t-278.5 -253.5l-104 -82v-4h455z" />
    <glyph glyph-name="three.dnom" 
d="M584 434v-4q73 -23 112 -75.5t39 -129.5q0 -112 -83.5 -174.5t-233.5 -62.5q-92 0 -167 25t-118 69v96h6q41 -53 114.5 -82.5t162.5 -29.5q111 0 172 43t61 124q0 78 -56.5 118t-164.5 40h-131v76h113q108 0 164.5 38t56.5 111q0 76 -57.5 117t-163.5 41
q-72 0 -138.5 -27.5t-113.5 -76.5h-6v94q44 40 116 64t148 24q141 0 221 -59.5t80 -165.5q0 -139 -133 -193z" />
    <glyph glyph-name="four.dnom" 
d="M672 0h-84v176h-498v74l496 590h86v-586h119v-78h-119v-176zM190 254h398v471z" />
    <glyph glyph-name="five.dnom" 
d="M426 539q146 0 227.5 -71t81.5 -200q0 -130 -86.5 -205t-236.5 -75q-94 0 -170 23.5t-119 66.5v94h6q86 -106 279 -106q115 0 178 52.5t63 149.5q0 94 -64.5 144.5t-187.5 50.5q-128 0 -241 -60h-6v437h532v-78h-453v-254q77 31 197 31z" />
    <glyph glyph-name="six.dnom" 
d="M465 539q129 0 209 -74t80 -195q0 -127 -83 -204.5t-220 -77.5q-166 0 -259.5 107.5t-93.5 301.5q0 217 98 336t275 119q149 0 219 -61v-93h-6q-76 76 -205 76q-137 0 -214 -89.5t-81 -256.5h4q94 111 277 111zM446 66q101 0 161.5 55t60.5 147q0 90 -59 141.5t-158 51.5
q-85 0 -155.5 -39.5t-107.5 -106.5q12 -117 80.5 -183t177.5 -66z" />
    <glyph glyph-name="seven.dnom" 
d="M776 758l-497 -758h-101l506 762h-553v78h645v-82z" />
    <glyph glyph-name="eight.dnom" 
d="M588 436v-4q83 -23 126.5 -77t43.5 -134q0 -109 -90 -171t-248 -62t-248 62t-90 171q0 78 43.5 131t126.5 76v4q-146 48 -146 195q0 106 83.5 165.5t230.5 59.5q146 0 229.5 -59.5t83.5 -165.5q0 -144 -145 -191zM193 618q0 -73 58 -111t169 -38t169 38t58 111
q0 74 -59.5 115t-167.5 41t-167.5 -41t-59.5 -115zM420 66q120 0 186 43t66 122q0 78 -65 119t-187 41t-187 -41t-65 -119q0 -79 66 -122t186 -43z" />
    <glyph glyph-name="nine.dnom" 
d="M389 852q166 0 259 -107.5t93 -302.5q0 -217 -97.5 -335.5t-274.5 -118.5q-149 0 -219 61v92h6q75 -75 204 -75q137 0 214 89.5t81 256.5h-4q-94 -111 -276 -111q-129 0 -209 73.5t-80 194.5q0 127 83 205t220 78zM389 379q85 0 155 39t107 106q-12 117 -80.5 183.5
t-177.5 66.5q-101 0 -161 -55.5t-60 -147.5q0 -90 59 -141t158 -51z" />
    </font>
</defs>
</svg>
